<svg xmlns="http://www.w3.org/2000/svg" xmlns:xlink="http://www.w3.org/1999/xlink" id="Layer_1" x="0" y="0" version="1.1" viewBox="0 0 385 145" xml:space="preserve" style="enable-background:new 0 0 385 145"><style type="text/css">.st0,.st1{fill:none;stroke:#b0b1b5}.st1{stroke:#1a1b1f;stroke-width:2;stroke-dasharray:6,3}.st2{fill:#fff}.st3{fill:#e0f0ff;stroke-width:2}.st3,.st4{stroke:#1a1b1f}.st4,.st5{stroke-width:2}.st4,.st5{fill:none}.st5{stroke:#000}.st6{fill:#e0f0ff}</style><line x1="252.5" x2="252.5" y1="0" y2="25" class="st0"/><line x1="265" x2="240" y1="12.5" y2="12.5" class="st0"/><line x1="312.5" x2="312.5" y1="0" y2="25" class="st0"/><line x1="325" x2="300" y1="12.5" y2="12.5" class="st0"/><line x1="192.5" x2="192.5" y1="0" y2="25" class="st0"/><line x1="205" x2="180" y1="12.5" y2="12.5" class="st0"/><line x1="72.5" x2="72.5" y1="0" y2="25" class="st0"/><line x1="85" x2="60" y1="12.5" y2="12.5" class="st0"/><line x1="372.5" x2="372.5" y1="0" y2="25" class="st0"/><line x1="385" x2="360" y1="12.5" y2="12.5" class="st0"/><line x1="132.5" x2="132.5" y1="0" y2="25" class="st0"/><line x1="145" x2="120" y1="12.5" y2="12.5" class="st0"/><line x1="12.5" x2="12.5" y1="0" y2="25" class="st0"/><line x1="25" x2="0" y1="12.5" y2="12.5" class="st0"/><line x1="252.5" x2="252.5" y1="60" y2="85" class="st0"/><line x1="265" x2="240" y1="72.5" y2="72.5" class="st0"/><line x1="312.5" x2="312.5" y1="60" y2="85" class="st0"/><line x1="325" x2="300" y1="72.5" y2="72.5" class="st0"/><line x1="192.5" x2="192.5" y1="60" y2="85" class="st0"/><line x1="205" x2="180" y1="72.5" y2="72.5" class="st0"/><line x1="72.5" x2="72.5" y1="60" y2="85" class="st0"/><line x1="85" x2="60" y1="72.5" y2="72.5" class="st0"/><line x1="372.5" x2="372.5" y1="60" y2="85" class="st0"/><line x1="385" x2="360" y1="72.5" y2="72.5" class="st0"/><line x1="132.5" x2="132.5" y1="60" y2="85" class="st0"/><line x1="145" x2="120" y1="72.5" y2="72.5" class="st0"/><line x1="12.5" x2="12.5" y1="60" y2="85" class="st0"/><line x1="25" x2="0" y1="72.5" y2="72.5" class="st0"/><line x1="252.5" x2="252.5" y1="120" y2="145" class="st0"/><line x1="265" x2="240" y1="132.5" y2="132.5" class="st0"/><line x1="312.5" x2="312.5" y1="120" y2="145" class="st0"/><line x1="325" x2="300" y1="132.5" y2="132.5" class="st0"/><line x1="192.5" x2="192.5" y1="120" y2="145" class="st0"/><line x1="205" x2="180" y1="132.5" y2="132.5" class="st0"/><line x1="72.5" x2="72.5" y1="120" y2="145" class="st0"/><line x1="85" x2="60" y1="132.5" y2="132.5" class="st0"/><line x1="372.5" x2="372.5" y1="120" y2="145" class="st0"/><line x1="385" x2="360" y1="132.5" y2="132.5" class="st0"/><line x1="132.5" x2="132.5" y1="120" y2="145" class="st0"/><line x1="145" x2="120" y1="132.5" y2="132.5" class="st0"/><line x1="12.5" x2="12.5" y1="120" y2="145" class="st0"/><line x1="25" x2="0" y1="132.5" y2="132.5" class="st0"/><path d="M133,132h119V13H133V132z" class="anim st1"/><rect width="59" height="59" x="121" y="1" class="st2"/><rect width="35" height="11" x="139" y="25" class="st3"/><rect width="35" height="11" x="127" y="7" class="st3"/><rect width="35" height="11" x="132" y="43" class="st3"/><line x1="150" x2="150" y1="42.4" y2="36.1" class="st4"/><line x1="150" x2="150" y1="59.9" y2="54.2" class="st4"/><line x1="150" x2="150" y1="24.9" y2="18.6" class="st4"/><rect width="59" height="59" x="121" y="1" class="st4"/><ellipse cx="235" cy="100" class="st3" rx="15" ry="15"/><path d="M234.5,115c-16.3,0-29.5,13-29.5,29h59C264,128,250.8,115,234.5,115z" class="st3"/><rect width="33" height="33" x="146" y="86" class="st3"/><line x1="164" x2="164" y1="86" y2="119" class="st5"/><line x1="157" x2="157" y1="86" y2="119" class="st5"/><line x1="151" x2="151" y1="86" y2="119" class="st5"/><g><path d="M215,41l8,7l8-22l8,7v26h-8h-8h-8h-8v-4.2L215,41z" class="st6"/><line x1="215" x2="215" y1="41" y2="59" class="st4"/><path d="M215,59c-2.6,0-4.9,0-8,0v-4.2l8-13.8l8,7" class="st4"/><line x1="223" x2="223" y1="48" y2="59" class="st4"/><path d="M223,48l8-22l8,7v26c-2.9,0-5.5,0-8,0" class="st4"/><line x1="231" x2="231" y1="26" y2="59" class="st4"/><path d="M231,59c-3,0-5.2,0-8,0" class="st4"/><path d="M223,59c-2.6,0-5.2,0-8,0" class="st4"/></g></svg>