<svg xmlns="http://www.w3.org/2000/svg" xmlns:xlink="http://www.w3.org/1999/xlink" id="Layer_1" x="0" y="0" version="1.1" viewBox="0 0 1270 294" xml:space="preserve" style="enable-background:new 0 0 1270 294"><style type="text/css">.st0{fill:none;stroke:#b0b1b5}.st1,.st2{stroke:#1a1b1f}.st1,.st2,.st3{stroke-width:2}.st1{fill:none;stroke-dasharray:6,3}.st2{fill:#e0f0ff}.st3{fill:none;stroke:#000}.st4{fill:#e0f0ff}.st5{fill:none;stroke:#1a1b1f;stroke-width:2}.st6{fill:#fff}</style><line x1="25.5" x2="25.5" y1="0" y2="50" class="st0"/><line x1="50" x2="0" y1="25.5" y2="25.5" class="st0"/><line x1="1123.5" x2="1123.5" y1="0" y2="50" class="st0"/><line x1="1148" x2="1098" y1="25.5" y2="25.5" class="st0"/><line x1="1245.5" x2="1245.5" y1="0" y2="50" class="st0"/><line x1="1270" x2="1220" y1="25.5" y2="25.5" class="st0"/><line x1="1001.5" x2="1001.5" y1="0" y2="50" class="st0"/><line x1="1026" x2="976" y1="25.5" y2="25.5" class="st0"/><line x1="879.5" x2="879.5" y1="0" y2="50" class="st0"/><line x1="904" x2="854" y1="25.5" y2="25.5" class="st0"/><line x1="757.5" x2="757.5" y1="0" y2="50" class="st0"/><line x1="782" x2="732" y1="25.5" y2="25.5" class="st0"/><line x1="25.5" x2="25.5" y1="122" y2="172" class="st0"/><line x1="50" x2="0" y1="147.5" y2="147.5" class="st0"/><line x1="1123.5" x2="1123.5" y1="122" y2="172" class="st0"/><line x1="1148" x2="1098" y1="147.5" y2="147.5" class="st0"/><line x1="1245.5" x2="1245.5" y1="122" y2="172" class="st0"/><line x1="1270" x2="1220" y1="147.5" y2="147.5" class="st0"/><line x1="1001.5" x2="1001.5" y1="122" y2="172" class="st0"/><line x1="1026" x2="976" y1="147.5" y2="147.5" class="st0"/><line x1="879.5" x2="879.5" y1="122" y2="172" class="st0"/><line x1="904" x2="854" y1="147.5" y2="147.5" class="st0"/><line x1="757.5" x2="757.5" y1="122" y2="172" class="st0"/><line x1="782" x2="732" y1="147.5" y2="147.5" class="st0"/><line x1="25.5" x2="25.5" y1="244" y2="294" class="st0"/><line x1="50" x2="0" y1="269.5" y2="269.5" class="st0"/><line x1="1123.5" x2="1123.5" y1="244" y2="294" class="st0"/><line x1="1148" x2="1098" y1="269.5" y2="269.5" class="st0"/><line x1="1245.5" x2="1245.5" y1="244" y2="294" class="st0"/><line x1="1270" x2="1220" y1="269.5" y2="269.5" class="st0"/><line x1="1001.5" x2="1001.5" y1="244" y2="294" class="st0"/><line x1="1026" x2="976" y1="269.5" y2="269.5" class="st0"/><line x1="879.5" x2="879.5" y1="244" y2="294" class="st0"/><line x1="904" x2="854" y1="269.5" y2="269.5" class="st0"/><line x1="757.5" x2="757.5" y1="244" y2="294" class="st0"/><line x1="782" x2="732" y1="269.5" y2="269.5" class="st0"/><rect width="365" height="243" x="758" y="26" class="anim rev st1"/><circle cx="940" cy="208" r="35" class="st2"/><path d="M940,173v35l-15.5,31.5" class="st3"/><path d="M940,208l-30-18" class="st3"/><path d="M1045,83.8l17,13.7l18-46.5l17,15.5V121h-17h-18h-17h-18v-9L1045,83.8z" class="st4"/><path d="M1045,83.8V121 M1045,121c-5.5,0-11.4,0-18,0v-9l18-28.2l0,0l17,13.7 M1062,97.5V121 M1062,97.5l18-46.5l0,0	l17,15.5V121c-6.2,0-11.8,0-17,0 M1080,51v70 M1080,121c-6.3,0-12.2,0-18,0 M1062,121c-5.5,0-11.1,0-17,0" class="st5"/><circle cx="1087" cy="203" r="31" class="st2"/><path d="M1086.5,234c-33.4,0-60.5,26.4-60.5,59h121C1147,260.4,1119.9,234,1086.5,234z" class="st2"/><rect width="70" height="70" x="783" y="173" class="st2"/><line x1="816" x2="816" y1="173" y2="243" class="st3"/><line x1="798" x2="798" y1="173" y2="243" class="st3"/><line x1="789" x2="789" y1="173" y2="243" class="st3"/><rect width="121" height="121" x="732" y="1" class="st6"/><rect width="72" height="23" x="768" y="50" class="st2"/><rect width="72" height="23" x="757" y="86" class="st2"/><rect width="72" height="23" x="745" y="14" class="st2"/><line x1="793" x2="793" y1="37" y2="50" class="st5"/><line x1="793" x2="793" y1="110" y2="121.5" class="st5"/><line x1="793" x2="793" y1="73" y2="86" class="st5"/><rect width="121" height="121" x="732" y="1" class="st5"/><rect width="56" height="70" x="912" y="51" class="st2"/><line x1="921" x2="960" y1="65" y2="65" class="st3"/><line x1="921" x2="960" y1="73" y2="73" class="st3"/><line x1="921" x2="960" y1="81" y2="81" class="st3"/><line x1="921" x2="960" y1="89" y2="89" class="st3"/><line x1="921" x2="951.9" y1="97" y2="97" class="st3"/></svg>