<svg xmlns="http://www.w3.org/2000/svg" xmlns:xlink="http://www.w3.org/1999/xlink" style="enable-background:new 0 0 1270 294" id="Layer_1" x="0" y="0" version="1.1" viewBox="0 0 1270 294" xml:space="preserve"><style type="text/css">.st0{fill:none;stroke:#b0b1b5}.st1,.st2,.st3{stroke:#1a1b1f;stroke-width:2}.st1{fill:none;stroke-dasharray:5.9668,2.9834}.st2{fill:#ffe5e5}.st3{fill:#fff}</style><line x1="25.5" x2="25.5" y1="0" y2="50" class="st0"/><line x1="50" x2="0" y1="25.5" y2="25.5" class="st0"/><line x1="1123.5" x2="1123.5" y1="0" y2="50" class="st0"/><line x1="1148" x2="1098" y1="25.5" y2="25.5" class="st0"/><line x1="1245.5" x2="1245.5" y1="0" y2="50" class="st0"/><line x1="1270" x2="1220" y1="25.5" y2="25.5" class="st0"/><line x1="1001.5" x2="1001.5" y1="0" y2="50" class="st0"/><line x1="1026" x2="976" y1="25.5" y2="25.5" class="st0"/><line x1="879.5" x2="879.5" y1="0" y2="50" class="st0"/><line x1="904" x2="854" y1="25.5" y2="25.5" class="st0"/><line x1="757.5" x2="757.5" y1="0" y2="50" class="st0"/><line x1="782" x2="732" y1="25.5" y2="25.5" class="st0"/><line x1="25.5" x2="25.5" y1="122" y2="172" class="st0"/><line x1="50" x2="0" y1="147.5" y2="147.5" class="st0"/><line x1="1123.5" x2="1123.5" y1="122" y2="172" class="st0"/><line x1="1148" x2="1098" y1="147.5" y2="147.5" class="st0"/><line x1="1245.5" x2="1245.5" y1="122" y2="172" class="st0"/><line x1="1270" x2="1220" y1="147.5" y2="147.5" class="st0"/><line x1="1001.5" x2="1001.5" y1="122" y2="172" class="st0"/><line x1="1026" x2="976" y1="147.5" y2="147.5" class="st0"/><line x1="879.5" x2="879.5" y1="122" y2="172" class="st0"/><line x1="904" x2="854" y1="147.5" y2="147.5" class="st0"/><line x1="757.5" x2="757.5" y1="122" y2="172" class="st0"/><line x1="782" x2="732" y1="147.5" y2="147.5" class="st0"/><line x1="25.5" x2="25.5" y1="244" y2="294" class="st0"/><line x1="50" x2="0" y1="269.5" y2="269.5" class="st0"/><line x1="1123.5" x2="1123.5" y1="244" y2="294" class="st0"/><line x1="1148" x2="1098" y1="269.5" y2="269.5" class="st0"/><line x1="1245.5" x2="1245.5" y1="244" y2="294" class="st0"/><line x1="1270" x2="1220" y1="269.5" y2="269.5" class="st0"/><line x1="1001.5" x2="1001.5" y1="244" y2="294" class="st0"/><line x1="1026" x2="976" y1="269.5" y2="269.5" class="st0"/><line x1="879.5" x2="879.5" y1="244" y2="294" class="st0"/><line x1="904" x2="854" y1="269.5" y2="269.5" class="st0"/><line x1="757.5" x2="757.5" y1="244" y2="294" class="st0"/><line x1="782" x2="732" y1="269.5" y2="269.5" class="st0"/><g><circle cx="1001.5" cy="147.5" r="122.5" class="rev anim st1"/></g><g><circle cx="878.5" cy="147.5" r="122.5" class="rev anim st1"/></g><circle cx="879" cy="25" r="24" class="st2"/><circle cx="1001" cy="25" r="24" class="st2"/><circle cx="879" cy="269" r="24" class="st2"/><circle cx="1001" cy="269" r="24" class="st2"/><circle cx="757" cy="147" r="24" class="st2"/><circle cx="879" cy="147" r="24" class="st2"/><circle cx="1001" cy="147" r="24" class="st2"/><circle cx="1123" cy="147" r="24" class="st3"/><circle cx="1123" cy="147" r="24" class="st2"/><circle cx="1088" cy="61" r="24" class="st2"/><circle cx="793" cy="61" r="24" class="st2"/><circle cx="1088" cy="234" r="24" class="st2"/><circle cx="793" cy="234" r="24" class="st2"/></svg>