<svg xmlns="http://www.w3.org/2000/svg" width="385" height="145" fill="none" viewBox="0 0 385 145"><line x1="252.5" x2="252.5" y1="0" y2="25" stroke="#B0B1B5"/><line x1="265" x2="240" y1="12.5" y2="12.5" stroke="#B0B1B5"/><line x1="312.5" x2="312.5" y1="0" y2="25" stroke="#B0B1B5"/><line x1="325" x2="300" y1="12.5" y2="12.5" stroke="#B0B1B5"/><line x1="192.5" x2="192.5" y1="0" y2="25" stroke="#B0B1B5"/><line x1="205" x2="180" y1="12.5" y2="12.5" stroke="#B0B1B5"/><line x1="72.5" x2="72.5" y1="0" y2="25" stroke="#B0B1B5"/><line x1="85" x2="60" y1="12.5" y2="12.5" stroke="#B0B1B5"/><line x1="372.5" x2="372.5" y1="0" y2="25" stroke="#B0B1B5"/><line x1="385" x2="360" y1="12.5" y2="12.5" stroke="#B0B1B5"/><line x1="132.5" x2="132.5" y1="0" y2="25" stroke="#B0B1B5"/><line x1="145" x2="120" y1="12.5" y2="12.5" stroke="#B0B1B5"/><line x1="12.5" x2="12.5" y1="0" y2="25" stroke="#B0B1B5"/><line x1="25" x2="0" y1="12.5" y2="12.5" stroke="#B0B1B5"/><line x1="252.5" x2="252.5" y1="60" y2="85" stroke="#B0B1B5"/><line x1="265" x2="240" y1="72.5" y2="72.5" stroke="#B0B1B5"/><line x1="312.5" x2="312.5" y1="60" y2="85" stroke="#B0B1B5"/><line x1="325" x2="300" y1="72.5" y2="72.5" stroke="#B0B1B5"/><line x1="192.5" x2="192.5" y1="60" y2="85" stroke="#B0B1B5"/><line x1="205" x2="180" y1="72.5" y2="72.5" stroke="#B0B1B5"/><line x1="72.5" x2="72.5" y1="60" y2="85" stroke="#B0B1B5"/><line x1="85" x2="60" y1="72.5" y2="72.5" stroke="#B0B1B5"/><line x1="372.5" x2="372.5" y1="60" y2="85" stroke="#B0B1B5"/><line x1="385" x2="360" y1="72.5" y2="72.5" stroke="#B0B1B5"/><line x1="132.5" x2="132.5" y1="60" y2="85" stroke="#B0B1B5"/><line x1="145" x2="120" y1="72.5" y2="72.5" stroke="#B0B1B5"/><line x1="12.5" x2="12.5" y1="60" y2="85" stroke="#B0B1B5"/><line x1="25" x2="0" y1="72.5" y2="72.5" stroke="#B0B1B5"/><line x1="252.5" x2="252.5" y1="120" y2="145" stroke="#B0B1B5"/><line x1="265" x2="240" y1="132.5" y2="132.5" stroke="#B0B1B5"/><line x1="312.5" x2="312.5" y1="120" y2="145" stroke="#B0B1B5"/><line x1="325" x2="300" y1="132.5" y2="132.5" stroke="#B0B1B5"/><line x1="192.5" x2="192.5" y1="120" y2="145" stroke="#B0B1B5"/><line x1="205" x2="180" y1="132.5" y2="132.5" stroke="#B0B1B5"/><line x1="72.5" x2="72.5" y1="120" y2="145" stroke="#B0B1B5"/><line x1="85" x2="60" y1="132.5" y2="132.5" stroke="#B0B1B5"/><line x1="372.5" x2="372.5" y1="120" y2="145" stroke="#B0B1B5"/><line x1="385" x2="360" y1="132.5" y2="132.5" stroke="#B0B1B5"/><line x1="132.5" x2="132.5" y1="120" y2="145" stroke="#B0B1B5"/><line x1="145" x2="120" y1="132.5" y2="132.5" stroke="#B0B1B5"/><line x1="12.5" x2="12.5" y1="120" y2="145" stroke="#B0B1B5"/><line x1="25" x2="0" y1="132.5" y2="132.5" stroke="#B0B1B5"/><circle cx="252.5" cy="72.5" r="59.5" stroke="#1A1B1F" stroke-dasharray="6 3" stroke-width="2" class="rev anim"/><circle cx="192.5" cy="72.5" r="59.5" stroke="#1A1B1F" stroke-dasharray="6 3" stroke-width="2" class="rev anim"/><circle cx="132.5" cy="72.5" r="59.5" stroke="#1A1B1F" stroke-dasharray="6 3" stroke-width="2" class="rev anim"/><circle cx="192.5" cy="12.5" r="11.5" fill="#FFE5E5" stroke="#1A1B1F" stroke-width="2"/><circle cx="132.5" cy="12.5" r="11.5" fill="#FFE5E5" stroke="#1A1B1F" stroke-width="2"/><circle cx="252.5" cy="12.5" r="11.5" fill="#FFE5E5" stroke="#1A1B1F" stroke-width="2"/><circle cx="192.5" cy="132.5" r="11.5" fill="#FFE5E5" stroke="#1A1B1F" stroke-width="2"/><circle cx="132.5" cy="132.5" r="11.5" fill="#FFE5E5" stroke="#1A1B1F" stroke-width="2"/><circle cx="252.5" cy="132.5" r="11.5" fill="#FFE5E5" stroke="#1A1B1F" stroke-width="2"/><circle cx="132.5" cy="72.5" r="11.5" fill="#FFE5E5" stroke="#1A1B1F" stroke-width="2"/><circle cx="72.5" cy="72.5" r="11.5" fill="#FFE5E5" stroke="#1A1B1F" stroke-width="2"/><circle cx="192.5" cy="72.5" r="11.5" fill="#FFE5E5" stroke="#1A1B1F" stroke-width="2"/><circle cx="252.5" cy="72.5" r="11.5" fill="#FFE5E5" stroke="#1A1B1F" stroke-width="2"/><circle cx="311.993" cy="72.5" r="11.243" fill="#fff" stroke="#1A1B1F" stroke-width="2"/><circle cx="312.5" cy="72.5" r="11.5" fill="#FFE5E5" stroke="#1A1B1F" stroke-width="2"/><circle cx="294.5" cy="30.5" r="11.5" fill="#FFE5E5" stroke="#1A1B1F" stroke-width="2"/><circle cx="90.5" cy="30.5" r="11.5" fill="#FFE5E5" stroke="#1A1B1F" stroke-width="2"/><circle cx="294.5" cy="114.5" r="11.5" fill="#FFE5E5" stroke="#1A1B1F" stroke-width="2"/><circle cx="90.5" cy="114.5" r="11.5" fill="#FFE5E5" stroke="#1A1B1F" stroke-width="2"/></svg>