<svg xmlns="http://www.w3.org/2000/svg" xmlns:xlink="http://www.w3.org/1999/xlink" id="Layer_1" x="0" y="0" version="1.1" viewBox="0 0 1270 416" xml:space="preserve" style="enable-background:new 0 0 1270 416"><style type="text/css">.st0{fill:none;stroke:#b0b1b5}</style><g id="Group_191"><g id="Illustration_x2F_Grid_x2F_Main"><g id="Crosshair"><line id="Line_1" x1="147.5" x2="147.5" y1="0" y2="50" class="st0"/><line id="Line_2" x1="172" x2="122" y1="25.5" y2="25.5" class="st0"/></g><g id="Crosshair_2"><line id="Line_1_x5F_2" x1="25.5" x2="25.5" y1="0" y2="50" class="st0"/><line id="Line_2_x5F_2" x1="50" x2="0" y1="25.5" y2="25.5" class="st0"/></g><g id="Crosshair_3"><line id="Line_1_x5F_3" x1="1123.5" x2="1123.5" y1="0" y2="50" class="st0"/><line id="Line_2_x5F_3" x1="1148" x2="1098" y1="25.5" y2="25.5" class="st0"/></g><g id="Crosshair_4"><line id="Line_1_x5F_4" x1="1245.5" x2="1245.5" y1="0" y2="50" class="st0"/><line id="Line_2_x5F_4" x1="1270" x2="1220" y1="25.5" y2="25.5" class="st0"/></g><g id="Crosshair_5"><line id="Line_1_x5F_5" x1="1001.5" x2="1001.5" y1="0" y2="50" class="st0"/><line id="Line_2_x5F_5" x1="1026" x2="976" y1="25.5" y2="25.5" class="st0"/></g><g id="Crosshair_6"><line id="Line_1_x5F_6" x1="879.5" x2="879.5" y1="0" y2="50" class="st0"/><line id="Line_2_x5F_6" x1="904" x2="854" y1="25.5" y2="25.5" class="st0"/></g><g id="Crosshair_7"><line id="Line_1_x5F_7" x1="757.5" x2="757.5" y1="0" y2="50" class="st0"/><line id="Line_2_x5F_7" x1="782" x2="732" y1="25.5" y2="25.5" class="st0"/></g><g id="Crosshair_8"><line id="Line_1_x5F_8" x1="635.5" x2="635.5" y1="0" y2="50" class="st0"/><line id="Line_2_x5F_8" x1="660" x2="610" y1="25.5" y2="25.5" class="st0"/></g><g id="Crosshair_9"><line id="Line_1_x5F_9" x1="513.5" x2="513.5" y1="0" y2="50" class="st0"/><line id="Line_2_x5F_9" x1="538" x2="488" y1="25.5" y2="25.5" class="st0"/></g><g id="Crosshair_10"><line id="Line_1_x5F_10" x1="391.5" x2="391.5" y1="0" y2="50" class="st0"/><line id="Line_2_x5F_10" x1="416" x2="366" y1="25.5" y2="25.5" class="st0"/></g><g id="Crosshair_11"><line id="Line_1_x5F_11" x1="269.5" x2="269.5" y1="0" y2="50" class="st0"/><line id="Line_2_x5F_11" x1="294" x2="244" y1="25.5" y2="25.5" class="st0"/></g><g id="Crosshair_12"><line id="Line_1_x5F_12" x1="147.5" x2="147.5" y1="122" y2="172" class="st0"/><line id="Line_2_x5F_12" x1="172" x2="122" y1="147.5" y2="147.5" class="st0"/></g><g id="Crosshair_13"><line id="Line_1_x5F_13" x1="25.5" x2="25.5" y1="122" y2="172" class="st0"/><line id="Line_2_x5F_13" x1="50" x2="0" y1="147.5" y2="147.5" class="st0"/></g><g id="Crosshair_14"><line id="Line_1_x5F_14" x1="1123.5" x2="1123.5" y1="122" y2="172" class="st0"/><line id="Line_2_x5F_14" x1="1148" x2="1098" y1="147.5" y2="147.5" class="st0"/></g><g id="Crosshair_15"><line id="Line_1_x5F_15" x1="1245.5" x2="1245.5" y1="122" y2="172" class="st0"/><line id="Line_2_x5F_15" x1="1270" x2="1220" y1="147.5" y2="147.5" class="st0"/></g><g id="Crosshair_23"><line id="Line_1_x5F_23" x1="147.5" x2="147.5" y1="244" y2="294" class="st0"/><line id="Line_2_x5F_23" x1="172" x2="122" y1="269.5" y2="269.5" class="st0"/></g><g id="Crosshair_24"><line id="Line_1_x5F_24" x1="25.5" x2="25.5" y1="244" y2="294" class="st0"/><line id="Line_2_x5F_24" x1="50" x2="0" y1="269.5" y2="269.5" class="st0"/></g><g id="Crosshair_25"><line id="Line_1_x5F_25" x1="1123.5" x2="1123.5" y1="244" y2="294" class="st0"/><line id="Line_2_x5F_25" x1="1148" x2="1098" y1="269.5" y2="269.5" class="st0"/></g><g id="Crosshair_26"><line id="Line_1_x5F_26" x1="1245.5" x2="1245.5" y1="244" y2="294" class="st0"/><line id="Line_2_x5F_26" x1="1270" x2="1220" y1="269.5" y2="269.5" class="st0"/></g><g id="Crosshair_34"><line id="Line_1_x5F_34" x1="147.5" x2="147.5" y1="366" y2="416" class="st0"/><line id="Line_2_x5F_34" x1="172" x2="122" y1="391.5" y2="391.5" class="st0"/></g><g id="Crosshair_35"><line id="Line_1_x5F_35" x1="25.5" x2="25.5" y1="366" y2="416" class="st0"/><line id="Line_2_x5F_35" x1="50" x2="0" y1="391.5" y2="391.5" class="st0"/></g><g id="Crosshair_36"><line id="Line_1_x5F_36" x1="1123.5" x2="1123.5" y1="366" y2="416" class="st0"/><line id="Line_2_x5F_36" x1="1148" x2="1098" y1="391.5" y2="391.5" class="st0"/></g><g id="Crosshair_37"><line id="Line_1_x5F_37" x1="1245.5" x2="1245.5" y1="366" y2="416" class="st0"/><line id="Line_2_x5F_37" x1="1270" x2="1220" y1="391.5" y2="391.5" class="st0"/></g><g id="Crosshair_38"><line id="Line_1_x5F_38" x1="1001.5" x2="1001.5" y1="366" y2="416" class="st0"/><line id="Line_2_x5F_38" x1="1026" x2="976" y1="391.5" y2="391.5" class="st0"/></g><g id="Crosshair_39"><line id="Line_1_x5F_39" x1="879.5" x2="879.5" y1="366" y2="416" class="st0"/><line id="Line_2_x5F_39" x1="904" x2="854" y1="391.5" y2="391.5" class="st0"/></g><g id="Crosshair_40"><line id="Line_1_x5F_40" x1="757.5" x2="757.5" y1="366" y2="416" class="st0"/><line id="Line_2_x5F_40" x1="782" x2="732" y1="391.5" y2="391.5" class="st0"/></g><g id="Crosshair_41"><line id="Line_1_x5F_41" x1="635.5" x2="635.5" y1="366" y2="416" class="st0"/><line id="Line_2_x5F_41" x1="660" x2="610" y1="391.5" y2="391.5" class="st0"/></g><g id="Crosshair_42"><line id="Line_1_x5F_42" x1="513.5" x2="513.5" y1="366" y2="416" class="st0"/><line id="Line_2_x5F_42" x1="538" x2="488" y1="391.5" y2="391.5" class="st0"/></g><g id="Crosshair_43"><line id="Line_1_x5F_43" x1="391.5" x2="391.5" y1="366" y2="416" class="st0"/><line id="Line_2_x5F_43" x1="416" x2="366" y1="391.5" y2="391.5" class="st0"/></g><g id="Crosshair_44"><line id="Line_1_x5F_44" x1="269.5" x2="269.5" y1="366" y2="416" class="st0"/><line id="Line_2_x5F_44" x1="294" x2="244" y1="391.5" y2="391.5" class="st0"/></g></g></g></svg>