<svg xmlns="http://www.w3.org/2000/svg" width="385" height="145" fill="none" viewBox="0 0 385 145"><line x1="252.5" x2="252.5" y1="0" y2="25" stroke="#B0B1B5"/><line x1="265" x2="240" y1="12.5" y2="12.5" stroke="#B0B1B5"/><line x1="312.5" x2="312.5" y1="0" y2="25" stroke="#B0B1B5"/><line x1="325" x2="300" y1="12.5" y2="12.5" stroke="#B0B1B5"/><line x1="192.5" x2="192.5" y1="0" y2="25" stroke="#B0B1B5"/><line x1="205" x2="180" y1="12.5" y2="12.5" stroke="#B0B1B5"/><line x1="72.5" x2="72.5" y1="0" y2="25" stroke="#B0B1B5"/><line x1="85" x2="60" y1="12.5" y2="12.5" stroke="#B0B1B5"/><line x1="372.5" x2="372.5" y1="0" y2="25" stroke="#B0B1B5"/><line x1="385" x2="360" y1="12.5" y2="12.5" stroke="#B0B1B5"/><line x1="132.5" x2="132.5" y1="0" y2="25" stroke="#B0B1B5"/><line x1="145" x2="120" y1="12.5" y2="12.5" stroke="#B0B1B5"/><line x1="12.5" x2="12.5" y1="0" y2="25" stroke="#B0B1B5"/><line x1="25" x2="0" y1="12.5" y2="12.5" stroke="#B0B1B5"/><line x1="252.5" x2="252.5" y1="60" y2="85" stroke="#B0B1B5"/><line x1="265" x2="240" y1="72.5" y2="72.5" stroke="#B0B1B5"/><line x1="312.5" x2="312.5" y1="60" y2="85" stroke="#B0B1B5"/><line x1="325" x2="300" y1="72.5" y2="72.5" stroke="#B0B1B5"/><line x1="192.5" x2="192.5" y1="60" y2="85" stroke="#B0B1B5"/><line x1="205" x2="180" y1="72.5" y2="72.5" stroke="#B0B1B5"/><line x1="72.5" x2="72.5" y1="60" y2="85" stroke="#B0B1B5"/><line x1="85" x2="60" y1="72.5" y2="72.5" stroke="#B0B1B5"/><line x1="372.5" x2="372.5" y1="60" y2="85" stroke="#B0B1B5"/><line x1="385" x2="360" y1="72.5" y2="72.5" stroke="#B0B1B5"/><line x1="132.5" x2="132.5" y1="60" y2="85" stroke="#B0B1B5"/><line x1="145" x2="120" y1="72.5" y2="72.5" stroke="#B0B1B5"/><line x1="12.5" x2="12.5" y1="60" y2="85" stroke="#B0B1B5"/><line x1="25" x2="0" y1="72.5" y2="72.5" stroke="#B0B1B5"/><line x1="252.5" x2="252.5" y1="120" y2="145" stroke="#B0B1B5"/><line x1="265" x2="240" y1="132.5" y2="132.5" stroke="#B0B1B5"/><line x1="312.5" x2="312.5" y1="120" y2="145" stroke="#B0B1B5"/><line x1="325" x2="300" y1="132.5" y2="132.5" stroke="#B0B1B5"/><line x1="192.5" x2="192.5" y1="120" y2="145" stroke="#B0B1B5"/><line x1="205" x2="180" y1="132.5" y2="132.5" stroke="#B0B1B5"/><line x1="72.5" x2="72.5" y1="120" y2="145" stroke="#B0B1B5"/><line x1="85" x2="60" y1="132.5" y2="132.5" stroke="#B0B1B5"/><line x1="372.5" x2="372.5" y1="120" y2="145" stroke="#B0B1B5"/><line x1="385" x2="360" y1="132.5" y2="132.5" stroke="#B0B1B5"/><line x1="132.5" x2="132.5" y1="120" y2="145" stroke="#B0B1B5"/><line x1="145" x2="120" y1="132.5" y2="132.5" stroke="#B0B1B5"/><line x1="12.5" x2="12.5" y1="120" y2="145" stroke="#B0B1B5"/><line x1="25" x2="0" y1="132.5" y2="132.5" stroke="#B0B1B5"/><path fill="#EFFFFD" stroke="#1A1B1F" stroke-width="2" d="M252.373 72.7449C219.442 72.7449 192.746 98.9534 192.746 131.283V132H312V131.283C312 98.9534 285.304 72.7449 252.373 72.7449Z"/><ellipse cx="277.402" cy="120.492" stroke="#1A1B1F" stroke-width="2" rx="7.116" ry="7.101"/><ellipse cx="278.628" cy="120.737" stroke="#1A1B1F" stroke-width="2" rx="5.398" ry="5.387"/><ellipse cx="252.373" cy="120.492" stroke="#1A1B1F" stroke-dasharray="6 3" stroke-width="2" class="anim rev" rx="5.644" ry="5.632"/><ellipse cx="252.373" cy="95.027" stroke="#1A1B1F" stroke-width="2" rx="7.116" ry="7.101"/><path stroke="#1A1B1F" stroke-width="2" d="M197.162 108.984L265.378 108.984L265.378 132"/><path stroke="#1A1B1F" stroke-width="2" d="M307.583 108.984L289.425 108.984L289.425 132"/><path stroke="#1A1B1F" stroke-width="2" d="M221.455 81.3149H283.536"/><path stroke="#000" stroke-width="2" d="M241.916 105.535L243.457 84.5186H261.288L262.83 105.535H241.916Z"/><path fill="#EFFFFD" stroke="#1A1B1F" stroke-width="2" d="M132.627 13C99.6961 13 73 39.6391 73 72.5V132H192.255V72.5C192.255 39.6391 165.559 13 132.627 13Z"/><path stroke="#1A1B1F" stroke-width="2" d="M132.982 17.8972C102.616 17.8972 78 42.5181 78 72.8895V132H187.965V72.8895C187.965 42.5181 163.348 17.8972 132.982 17.8972Z"/><ellipse cx="158.883" cy="103.597" stroke="#1A1B1F" stroke-width="2" rx="18.158" ry="18.119"/><ellipse cx="158.883" cy="103.597" stroke="#1A1B1F" stroke-dasharray="6 3" stroke-width="2" class="anim rev" rx="4.238" ry="4.229"/><ellipse cx="106.371" cy="103.597" stroke="#1A1B1F" stroke-width="2" rx="17.667" ry="17.63"/><ellipse cx="106.372" cy="103.597" stroke="#1A1B1F" stroke-dasharray="6 3" stroke-width="2" class="anim rev" rx="4.238" ry="4.229"/><path stroke="#000" stroke-width="2" d="M184 84.2551C178.134 76.9399 169.115 72.2551 159 72.2551C148.885 72.2551 139.866 76.9399 134 84.2551C128.134 76.9399 119.115 72.2551 109 72.2551C98.8851 72.2551 89.8659 76.9399 84 84.2551"/><line x1="134" x2="134" y1="84.498" y2="123.498" stroke="#000" stroke-width="2"/><path stroke="#000" stroke-width="2" d="M143.688 131.991C139.902 129.869 136.57 127.036 133.873 123.675C131.175 127.036 127.843 129.869 124.058 131.991"/></svg>