<svg xmlns="http://www.w3.org/2000/svg" xmlns:xlink="http://www.w3.org/1999/xlink" id="Layer_1" x="0" y="0" version="1.1" viewBox="0 0 385 145" xml:space="preserve" style="enable-background:new 0 0 385 145"><style type="text/css">.st0{fill:none;stroke:#b0b1b5}.st1,.st2,.st3{fill:#d6fff8;stroke:#1a1b1f;stroke-width:2}.st2,.st3{fill:none}.st3{stroke-dasharray:6,3}</style><line x1="252.5" x2="252.5" y1="0" y2="25" class="st0"/><line x1="265" x2="240" y1="12.5" y2="12.5" class="st0"/><line x1="312.5" x2="312.5" y1="0" y2="25" class="st0"/><line x1="325" x2="300" y1="12.5" y2="12.5" class="st0"/><line x1="192.5" x2="192.5" y1="0" y2="25" class="st0"/><line x1="205" x2="180" y1="12.5" y2="12.5" class="st0"/><line x1="72.5" x2="72.5" y1="0" y2="25" class="st0"/><line x1="85" x2="60" y1="12.5" y2="12.5" class="st0"/><line x1="372.5" x2="372.5" y1="0" y2="25" class="st0"/><line x1="385" x2="360" y1="12.5" y2="12.5" class="st0"/><line x1="132.5" x2="132.5" y1="0" y2="25" class="st0"/><line x1="145" x2="120" y1="12.5" y2="12.5" class="st0"/><line x1="12.5" x2="12.5" y1="0" y2="25" class="st0"/><line x1="25" x2="0" y1="12.5" y2="12.5" class="st0"/><line x1="252.5" x2="252.5" y1="60" y2="85" class="st0"/><line x1="265" x2="240" y1="72.5" y2="72.5" class="st0"/><line x1="312.5" x2="312.5" y1="60" y2="85" class="st0"/><line x1="325" x2="300" y1="72.5" y2="72.5" class="st0"/><line x1="192.5" x2="192.5" y1="60" y2="85" class="st0"/><line x1="205" x2="180" y1="72.5" y2="72.5" class="st0"/><line x1="72.5" x2="72.5" y1="60" y2="85" class="st0"/><line x1="85" x2="60" y1="72.5" y2="72.5" class="st0"/><line x1="372.5" x2="372.5" y1="60" y2="85" class="st0"/><line x1="385" x2="360" y1="72.5" y2="72.5" class="st0"/><line x1="132.5" x2="132.5" y1="60" y2="85" class="st0"/><line x1="145" x2="120" y1="72.5" y2="72.5" class="st0"/><line x1="12.5" x2="12.5" y1="60" y2="85" class="st0"/><line x1="25" x2="0" y1="72.5" y2="72.5" class="st0"/><line x1="252.5" x2="252.5" y1="120" y2="145" class="st0"/><line x1="265" x2="240" y1="132.5" y2="132.5" class="st0"/><line x1="312.5" x2="312.5" y1="120" y2="145" class="st0"/><line x1="325" x2="300" y1="132.5" y2="132.5" class="st0"/><line x1="192.5" x2="192.5" y1="120" y2="145" class="st0"/><line x1="205" x2="180" y1="132.5" y2="132.5" class="st0"/><line x1="72.5" x2="72.5" y1="120" y2="145" class="st0"/><line x1="85" x2="60" y1="132.5" y2="132.5" class="st0"/><line x1="372.5" x2="372.5" y1="120" y2="145" class="st0"/><line x1="385" x2="360" y1="132.5" y2="132.5" class="st0"/><line x1="132.5" x2="132.5" y1="120" y2="145" class="st0"/><line x1="145" x2="120" y1="132.5" y2="132.5" class="st0"/><line x1="12.5" x2="12.5" y1="120" y2="145" class="st0"/><line x1="25" x2="0" y1="132.5" y2="132.5" class="st0"/><rect width="35" height="11" x="217" y="25" class="st1"/><rect width="35" height="11" x="223" y="43" class="st1"/><rect width="35" height="11" x="211" y="7" class="st1"/><line x1="235" x2="235" y1="18.6" y2="24.9" class="st2"/><line x1="235" x2="235" y1="54.1" y2="59.8" class="st2"/><line x1="235" x2="235" y1="36.1" y2="42.4" class="st2"/><path d="M205,1v59h59V1H205z" class="anim st3"/><rect width="35" height="11" x="127" y="109" class="st1"/><rect width="35" height="11" x="139" y="127" class="st1"/><rect width="35" height="11" x="134" y="91" class="st1"/><line x1="151" x2="151" y1="102.6" y2="108.9" class="st2"/><line x1="151" x2="151" y1="138.1" y2="143.8" class="st2"/><line x1="151" x2="151" y1="120.1" y2="126.4" class="st2"/><path d="M121,85v59h59V85H121z" class="anim st3"/><ellipse cx="192.5" cy="72.5" class="st1" rx="46.5" ry="46.5"/><ellipse cx="192.5" cy="72.5" class="st2" rx="33.5" ry="46.5"/><ellipse cx="193" cy="72.5" class="st2" rx="18" ry="46.5"/><line x1="193" x2="193" y1="26" y2="120" class="st2"/><path d="M239.9,73h-93" class="anim st3"/><path d="M233,95h-81" class="anim st3"/><path d="M234,51h-83" class="anim st3"/></svg>