<svg xmlns="http://www.w3.org/2000/svg" xmlns:xlink="http://www.w3.org/1999/xlink" id="Layer_1" x="0" y="0" version="1.1" viewBox="0 0 385 145" xml:space="preserve" style="enable-background:new 0 0 385 145"><style type="text/css">.st0{fill:none;stroke:#b0b1b5}.st1,.st2,.st3{fill:#d6fff8;stroke:#1a1b1f;stroke-width:2}.st2,.st3{fill:none}.st3{stroke-dasharray:6,3}</style><line x1="252.5" x2="252.5" y1="0" y2="25" class="st0"/><line x1="265" x2="240" y1="12.5" y2="12.5" class="st0"/><line x1="312.5" x2="312.5" y1="0" y2="25" class="st0"/><line x1="325" x2="300" y1="12.5" y2="12.5" class="st0"/><line x1="192.5" x2="192.5" y1="0" y2="25" class="st0"/><line x1="205" x2="180" y1="12.5" y2="12.5" class="st0"/><line x1="72.5" x2="72.5" y1="0" y2="25" class="st0"/><line x1="85" x2="60" y1="12.5" y2="12.5" class="st0"/><line x1="372.5" x2="372.5" y1="0" y2="25" class="st0"/><line x1="385" x2="360" y1="12.5" y2="12.5" class="st0"/><line x1="132.5" x2="132.5" y1="0" y2="25" class="st0"/><line x1="145" x2="120" y1="12.5" y2="12.5" class="st0"/><line x1="12.5" x2="12.5" y1="0" y2="25" class="st0"/><line x1="25" x2="0" y1="12.5" y2="12.5" class="st0"/><line x1="252.5" x2="252.5" y1="60" y2="85" class="st0"/><line x1="265" x2="240" y1="72.5" y2="72.5" class="st0"/><line x1="312.5" x2="312.5" y1="60" y2="85" class="st0"/><line x1="325" x2="300" y1="72.5" y2="72.5" class="st0"/><line x1="192.5" x2="192.5" y1="60" y2="85" class="st0"/><line x1="205" x2="180" y1="72.5" y2="72.5" class="st0"/><line x1="72.5" x2="72.5" y1="60" y2="85" class="st0"/><line x1="85" x2="60" y1="72.5" y2="72.5" class="st0"/><line x1="372.5" x2="372.5" y1="60" y2="85" class="st0"/><line x1="385" x2="360" y1="72.5" y2="72.5" class="st0"/><line x1="132.5" x2="132.5" y1="60" y2="85" class="st0"/><line x1="145" x2="120" y1="72.5" y2="72.5" class="st0"/><line x1="12.5" x2="12.5" y1="60" y2="85" class="st0"/><line x1="25" x2="0" y1="72.5" y2="72.5" class="st0"/><line x1="252.5" x2="252.5" y1="120" y2="145" class="st0"/><line x1="265" x2="240" y1="132.5" y2="132.5" class="st0"/><line x1="312.5" x2="312.5" y1="120" y2="145" class="st0"/><line x1="325" x2="300" y1="132.5" y2="132.5" class="st0"/><line x1="192.5" x2="192.5" y1="120" y2="145" class="st0"/><line x1="205" x2="180" y1="132.5" y2="132.5" class="st0"/><line x1="72.5" x2="72.5" y1="120" y2="145" class="st0"/><line x1="85" x2="60" y1="132.5" y2="132.5" class="st0"/><line x1="372.5" x2="372.5" y1="120" y2="145" class="st0"/><line x1="385" x2="360" y1="132.5" y2="132.5" class="st0"/><line x1="132.5" x2="132.5" y1="120" y2="145" class="st0"/><line x1="145" x2="120" y1="132.5" y2="132.5" class="st0"/><line x1="12.5" x2="12.5" y1="120" y2="145" class="st0"/><line x1="25" x2="0" y1="132.5" y2="132.5" class="st0"/><rect width="35" height="11" x="139" y="97" class="st1"/><rect width="35" height="11" x="151" y="115" class="st1"/><rect width="35" height="11" x="146" y="79" class="st1"/><line x1="163" x2="163" y1="90.6" y2="96.9" class="st2"/><line x1="163" x2="163" y1="126.1" y2="131.8" class="st2"/><line x1="163" x2="163" y1="108.1" y2="114.4" class="st2"/><rect width="35" height="11" x="205" y="37" class="st1"/><rect width="35" height="11" x="211" y="55" class="st1"/><rect width="35" height="11" x="199" y="19" class="st1"/><line x1="223" x2="223" y1="30.6" y2="36.9" class="st2"/><line x1="223" x2="223" y1="66.1" y2="71.8" class="st2"/><line x1="223" x2="223" y1="48.1" y2="54.4" class="st2"/><rect width="35" height="11" x="151" y="37" class="st1"/><rect width="35" height="11" x="139" y="19" class="st1"/><rect width="35" height="11" x="144" y="55" class="st1"/><line x1="162" x2="162" y1="54.4" y2="48.1" class="st2"/><line x1="162" x2="162" y1="71.9" y2="66.2" class="st2"/><line x1="162" x2="162" y1="36.9" y2="30.6" class="st2"/><rect width="35" height="11" x="211" y="97" class="st1"/><rect width="35" height="11" x="205" y="115" class="st1"/><rect width="35" height="11" x="199" y="79" class="st1"/><line x1="222" x2="222" y1="90.6" y2="96.9" class="st2"/><line x1="222" x2="222" y1="126.1" y2="131.8" class="st2"/><line x1="222" x2="222" y1="108.1" y2="114.4" class="st2"/><path d="M133,13v60h59V13H133z" class="anim st3"/><path d="M133,73v59h59V73" class="anim st3"/><path d="M193,132h59V73" class="anim st3"/><path d="M193,73h59V13h-59" class="anim st3"/></svg>