<svg xmlns="http://www.w3.org/2000/svg" xmlns:xlink="http://www.w3.org/1999/xlink" style="enable-background:new 0 0 385 145" id="Layer_1" x="0" y="0" version="1.1" viewBox="0 0 385 145" xml:space="preserve"><style type="text/css">.st0{fill:none;stroke:#1a1b1f;stroke-width:2;stroke-dasharray:6,3}.st1{fill:none;stroke:#b0b1b5}.st2{fill:#d6fff8}.st2,.st3,.st4,.st5{stroke:#1a1b1f;stroke-width:2}.st3{fill:#d6fff8;stroke-dasharray:4,3}.st4{fill:none}.st5{fill:#fff;stroke-miterlimit:4}.st6{fill:#d6fff8}.st7{fill:none;stroke:#000;stroke-width:2}</style><path d="M72,25H61" class="anim st0"/><line x1="252.5" x2="252.5" y1="0" y2="25" class="st1"/><line x1="265" x2="240" y1="12.5" y2="12.5" class="st1"/><line x1="312.5" x2="312.5" y1="0" y2="25" class="st1"/><line x1="325" x2="300" y1="12.5" y2="12.5" class="st1"/><line x1="192.5" x2="192.5" y1="0" y2="25" class="st1"/><line x1="205" x2="180" y1="12.5" y2="12.5" class="st1"/><line x1="72.5" x2="72.5" y1="0" y2="25" class="st1"/><line x1="85" x2="60" y1="12.5" y2="12.5" class="st1"/><line x1="372.5" x2="372.5" y1="0" y2="25" class="st1"/><line x1="385" x2="360" y1="12.5" y2="12.5" class="st1"/><line x1="132.5" x2="132.5" y1="0" y2="25" class="st1"/><line x1="145" x2="120" y1="12.5" y2="12.5" class="st1"/><line x1="12.5" x2="12.5" y1="0" y2="25" class="st1"/><line x1="25" x2="0" y1="12.5" y2="12.5" class="st1"/><line x1="252.5" x2="252.5" y1="60" y2="85" class="st1"/><line x1="265" x2="240" y1="72.5" y2="72.5" class="st1"/><line x1="312.5" x2="312.5" y1="60" y2="85" class="st1"/><line x1="325" x2="300" y1="72.5" y2="72.5" class="st1"/><line x1="192.5" x2="192.5" y1="60" y2="85" class="st1"/><line x1="205" x2="180" y1="72.5" y2="72.5" class="st1"/><line x1="72.5" x2="72.5" y1="60" y2="85" class="st1"/><line x1="85" x2="60" y1="72.5" y2="72.5" class="st1"/><line x1="372.5" x2="372.5" y1="60" y2="85" class="st1"/><line x1="385" x2="360" y1="72.5" y2="72.5" class="st1"/><line x1="132.5" x2="132.5" y1="60" y2="85" class="st1"/><line x1="145" x2="120" y1="72.5" y2="72.5" class="st1"/><line x1="12.5" x2="12.5" y1="60" y2="85" class="st1"/><line x1="25" x2="0" y1="72.5" y2="72.5" class="st1"/><line x1="252.5" x2="252.5" y1="120" y2="145" class="st1"/><line x1="265" x2="240" y1="132.5" y2="132.5" class="st1"/><line x1="312.5" x2="312.5" y1="120" y2="145" class="st1"/><line x1="325" x2="300" y1="132.5" y2="132.5" class="st1"/><line x1="192.5" x2="192.5" y1="120" y2="145" class="st1"/><line x1="205" x2="180" y1="132.5" y2="132.5" class="st1"/><line x1="72.5" x2="72.5" y1="120" y2="145" class="st1"/><line x1="85" x2="60" y1="132.5" y2="132.5" class="st1"/><line x1="372.5" x2="372.5" y1="120" y2="145" class="st1"/><line x1="385" x2="360" y1="132.5" y2="132.5" class="st1"/><line x1="132.5" x2="132.5" y1="120" y2="145" class="st1"/><line x1="145" x2="120" y1="132.5" y2="132.5" class="st1"/><line x1="12.5" x2="12.5" y1="120" y2="145" class="st1"/><line x1="25" x2="0" y1="132.5" y2="132.5" class="st1"/><rect width="35" height="11" x="19" y="97" class="st2"/><rect width="35" height="11" x="31" y="115" class="st2"/><rect width="35" height="11" x="26" y="79" class="anim rev st3"/><line x1="43" x2="43" y1="90.6" y2="96.9" class="st4"/><line x1="43" x2="43" y1="126.1" y2="131.8" class="st4"/><line x1="43" x2="43" y1="108.1" y2="114.4" class="st4"/><rect width="59" height="59" x="13" y="73" class="st4"/><rect width="35" height="11" x="91" y="97" class="st2"/><rect width="35" height="11" x="85" y="115" class="st2"/><rect width="35" height="11" x="79" y="79" class="anim rev st3"/><line x1="103" x2="103" y1="90.6" y2="96.9" class="st4"/><line x1="103" x2="103" y1="126.1" y2="131.8" class="st4"/><line x1="103" x2="103" y1="108.1" y2="114.4" class="st4"/><path d="M132,73v59H73" class="st4"/><rect width="35" height="11" x="85" y="37" class="st2"/><rect width="35" height="11" x="91" y="55" class="st2"/><rect width="35" height="11" x="79" y="19" class="anim rev st3"/><line x1="103" x2="103" y1="30.6" y2="36.9" class="st4"/><line x1="103" x2="103" y1="66.1" y2="71.8" class="st4"/><line x1="103" x2="103" y1="48.1" y2="54.4" class="st4"/><rect width="59" height="59" x="73" y="13" class="st4"/><path d="M1,1h47l12,12v47H1V1z" class="st2"/><rect width="12" height="12" x="40.9" y="40.5" class="st5" transform="matrix(0.7071 -0.7071 0.7071 0.7071 -19.1361 46.7719)"/><path d="M47,1v13h13" class="st4"/><line x1="6.8" x2="43.6" y1="19.4" y2="19.4" class="st4"/><line x1="6.8" x2="31.5" y1="25.7" y2="25.7" class="st4"/><rect width="119" height="119" x="253" y="13" class="anim rev st0"/><path d="M334,41l8,7l8-22l8,7v26h-8h-8h-8h-8v-4.2L334,41z" class="st6"/><path d="M334,41v18 M342,48v11 M350,26l0,33 M334,59c-2.6,0-4.9,0-8,0v-4.2l8-13.8l8,7l8-22l8,7v26c-2.9,0-5.5,0-8,0	c-3,0-5.2,0-8,0C339.4,59,336.8,59,334,59z" class="st4"/><ellipse cx="355" cy="100" class="st2" rx="15" ry="15"/><path d="M354.5,115c-16.3,0-29.5,13-29.5,29h59C384,128,370.8,115,354.5,115z" class="st2"/><rect width="33" height="33" x="266" y="86" class="st2"/><line x1="284" x2="284" y1="86" y2="119" class="st7"/><line x1="277" x2="277" y1="86" y2="119" class="st7"/><line x1="271" x2="271" y1="86" y2="119" class="st7"/><circle cx="282.5" cy="43.5" r="16.5" class="st2"/><path d="M282.5,27v16.5l-7.3,14.8" class="st7"/><path d="M282.5,43.5L268.4,35" class="st7"/><path d="M193,73V42h-60" class="anim st0"/><path d="M252,73h-90v29h-29" class="anim st0"/><path d="M222,73v71H43v-11" class="anim st0"/><path d="M43,72V61" class="anim st0"/><path d="M72.7,72.3l-13-13" class="anim st0"/></svg>