<svg xmlns="http://www.w3.org/2000/svg" width="385" height="146" fill="none" viewBox="0 0 385 146"><line x1="252.5" x2="252.5" y1="0" y2="25" stroke="#B0B1B5"/><line x1="265" x2="240" y1="12.5" y2="12.5" stroke="#B0B1B5"/><line x1="312.5" x2="312.5" y1="0" y2="25" stroke="#B0B1B5"/><line x1="325" x2="300" y1="12.5" y2="12.5" stroke="#B0B1B5"/><line x1="192.5" x2="192.5" y1="0" y2="25" stroke="#B0B1B5"/><line x1="205" x2="180" y1="12.5" y2="12.5" stroke="#B0B1B5"/><line x1="72.5" x2="72.5" y1="0" y2="25" stroke="#B0B1B5"/><line x1="85" x2="60" y1="12.5" y2="12.5" stroke="#B0B1B5"/><line x1="372.5" x2="372.5" y1="0" y2="25" stroke="#B0B1B5"/><line x1="385" x2="360" y1="12.5" y2="12.5" stroke="#B0B1B5"/><line x1="132.5" x2="132.5" y1="0" y2="25" stroke="#B0B1B5"/><line x1="145" x2="120" y1="12.5" y2="12.5" stroke="#B0B1B5"/><line x1="12.5" x2="12.5" y1="0" y2="25" stroke="#B0B1B5"/><line x1="25" x2="0" y1="12.5" y2="12.5" stroke="#B0B1B5"/><line x1="252.5" x2="252.5" y1="60" y2="85" stroke="#B0B1B5"/><line x1="265" x2="240" y1="72.5" y2="72.5" stroke="#B0B1B5"/><line x1="312.5" x2="312.5" y1="60" y2="85" stroke="#B0B1B5"/><line x1="325" x2="300" y1="72.5" y2="72.5" stroke="#B0B1B5"/><line x1="192.5" x2="192.5" y1="60" y2="85" stroke="#B0B1B5"/><line x1="205" x2="180" y1="72.5" y2="72.5" stroke="#B0B1B5"/><line x1="72.5" x2="72.5" y1="60" y2="85" stroke="#B0B1B5"/><line x1="85" x2="60" y1="72.5" y2="72.5" stroke="#B0B1B5"/><line x1="372.5" x2="372.5" y1="60" y2="85" stroke="#B0B1B5"/><line x1="385" x2="360" y1="72.5" y2="72.5" stroke="#B0B1B5"/><line x1="132.5" x2="132.5" y1="60" y2="85" stroke="#B0B1B5"/><line x1="145" x2="120" y1="72.5" y2="72.5" stroke="#B0B1B5"/><line x1="12.5" x2="12.5" y1="60" y2="85" stroke="#B0B1B5"/><line x1="25" x2="0" y1="72.5" y2="72.5" stroke="#B0B1B5"/><line x1="252.5" x2="252.5" y1="120" y2="145" stroke="#B0B1B5"/><line x1="265" x2="240" y1="132.5" y2="132.5" stroke="#B0B1B5"/><line x1="312.5" x2="312.5" y1="120" y2="145" stroke="#B0B1B5"/><line x1="325" x2="300" y1="132.5" y2="132.5" stroke="#B0B1B5"/><line x1="192.5" x2="192.5" y1="120" y2="145" stroke="#B0B1B5"/><line x1="205" x2="180" y1="132.5" y2="132.5" stroke="#B0B1B5"/><line x1="72.5" x2="72.5" y1="120" y2="145" stroke="#B0B1B5"/><line x1="85" x2="60" y1="132.5" y2="132.5" stroke="#B0B1B5"/><line x1="372.5" x2="372.5" y1="120" y2="145" stroke="#B0B1B5"/><line x1="385" x2="360" y1="132.5" y2="132.5" stroke="#B0B1B5"/><line x1="132.5" x2="132.5" y1="120" y2="145" stroke="#B0B1B5"/><line x1="145" x2="120" y1="132.5" y2="132.5" stroke="#B0B1B5"/><line x1="12.5" x2="12.5" y1="120" y2="145" stroke="#B0B1B5"/><line x1="25" x2="0" y1="132.5" y2="132.5" stroke="#B0B1B5"/><rect width="119" height="119" stroke="#1A1B1F" stroke-dasharray="6 3" stroke-width="2" class="anim" transform="matrix(-1 0 0 1 252 13)"/><rect width="59" height="59" x="180" y="60" fill="#fff" transform="rotate(-180 180 60)"/><rect width="35" height="11" x="174" y="36" fill="#D6FFF8" stroke="#1A1B1F" stroke-width="2" transform="rotate(-180 174 36)"/><rect width="35" height="11" x="162" y="18" fill="#D6FFF8" stroke="#1A1B1F" stroke-width="2" transform="rotate(-180 162 18)"/><rect width="35" height="11" x="167" y="54" fill="#D6FFF8" stroke="#1A1B1F" stroke-width="2" transform="rotate(-180 167 54)"/><line x1="150" x2="150" y1="42.446" y2="36.107" stroke="#1A1B1F" stroke-width="2"/><line x1="150" x2="150" y1="59.851" y2="54.221" stroke="#1A1B1F" stroke-width="2"/><line x1="150" x2="150" y1="24.893" y2="18.554" stroke="#1A1B1F" stroke-width="2"/><rect width="59" height="59" x="180" y="60" stroke="#1A1B1F" stroke-width="2" transform="rotate(-180 180 60)"/><ellipse cx="235" cy="100" fill="#D6FFF8" stroke="#1A1B1F" stroke-width="2" rx="15" ry="15"/><path fill="#D6FFF8" stroke="#1A1B1F" stroke-width="2" d="M234.5 115C218.208 115 205 127.984 205 144H264C264 127.984 250.792 115 234.5 115Z"/><rect width="33" height="33" x="146" y="86" fill="#D6FFF8" stroke="#1A1B1F" stroke-width="2"/><line x1="164" x2="164" y1="86" y2="119" stroke="#000" stroke-width="2"/><line x1="157" x2="157" y1="86" y2="119" stroke="#000" stroke-width="2"/><line x1="151" x2="151" y1="86" y2="119" stroke="#000" stroke-width="2"/><path fill="#D6FFF8" d="M215 41L223 48L231 26L239 33V59H230.986H223H215H207V54.7571L215 41Z"/><path stroke="#1A1B1F" stroke-width="2" d="M215 41L223 48M215 41V59M215 41L207 54.7571V59C210.104 59 212.394 59 215 59M223 48L231 26M223 48V59M231 26L239 33V59C236.082 59 233.455 59 230.986 59M231 26L230.986 59M230.986 59C228.003 59 225.751 59 223 59M223 59C220.394 59 217.803 59 215 59"/></svg>