<svg xmlns="http://www.w3.org/2000/svg" width="385" height="149" fill="none" viewBox="0 0 385 149"><line x1="252.5" x2="252.5" y1="2" y2="27" stroke="#B0B1B5"/><line x1="265" x2="240" y1="14.5" y2="14.5" stroke="#B0B1B5"/><line x1="312.5" x2="312.5" y1="2" y2="27" stroke="#B0B1B5"/><line x1="325" x2="300" y1="14.5" y2="14.5" stroke="#B0B1B5"/><line x1="192.5" x2="192.5" y1="2" y2="27" stroke="#B0B1B5"/><line x1="205" x2="180" y1="14.5" y2="14.5" stroke="#B0B1B5"/><line x1="72.5" x2="72.5" y1="2" y2="27" stroke="#B0B1B5"/><line x1="85" x2="60" y1="14.5" y2="14.5" stroke="#B0B1B5"/><line x1="372.5" x2="372.5" y1="2" y2="27" stroke="#B0B1B5"/><line x1="385" x2="360" y1="14.5" y2="14.5" stroke="#B0B1B5"/><line x1="132.5" x2="132.5" y1="2" y2="27" stroke="#B0B1B5"/><line x1="145" x2="120" y1="14.5" y2="14.5" stroke="#B0B1B5"/><line x1="12.5" x2="12.5" y1="2" y2="27" stroke="#B0B1B5"/><line x1="25" x2="0" y1="14.5" y2="14.5" stroke="#B0B1B5"/><line x1="252.5" x2="252.5" y1="62" y2="87" stroke="#B0B1B5"/><line x1="265" x2="240" y1="74.5" y2="74.5" stroke="#B0B1B5"/><line x1="312.5" x2="312.5" y1="62" y2="87" stroke="#B0B1B5"/><line x1="325" x2="300" y1="74.5" y2="74.5" stroke="#B0B1B5"/><line x1="192.5" x2="192.5" y1="62" y2="87" stroke="#B0B1B5"/><line x1="205" x2="180" y1="74.5" y2="74.5" stroke="#B0B1B5"/><line x1="72.5" x2="72.5" y1="62" y2="87" stroke="#B0B1B5"/><line x1="85" x2="60" y1="74.5" y2="74.5" stroke="#B0B1B5"/><line x1="372.5" x2="372.5" y1="62" y2="87" stroke="#B0B1B5"/><line x1="385" x2="360" y1="74.5" y2="74.5" stroke="#B0B1B5"/><line x1="132.5" x2="132.5" y1="62" y2="87" stroke="#B0B1B5"/><line x1="145" x2="120" y1="74.5" y2="74.5" stroke="#B0B1B5"/><line x1="12.5" x2="12.5" y1="62" y2="87" stroke="#B0B1B5"/><line x1="25" x2="0" y1="74.5" y2="74.5" stroke="#B0B1B5"/><line x1="252.5" x2="252.5" y1="122" y2="147" stroke="#B0B1B5"/><line x1="265" x2="240" y1="134.5" y2="134.5" stroke="#B0B1B5"/><line x1="312.5" x2="312.5" y1="122" y2="147" stroke="#B0B1B5"/><line x1="325" x2="300" y1="134.5" y2="134.5" stroke="#B0B1B5"/><line x1="192.5" x2="192.5" y1="122" y2="147" stroke="#B0B1B5"/><line x1="205" x2="180" y1="134.5" y2="134.5" stroke="#B0B1B5"/><line x1="72.5" x2="72.5" y1="122" y2="147" stroke="#B0B1B5"/><line x1="85" x2="60" y1="134.5" y2="134.5" stroke="#B0B1B5"/><line x1="372.5" x2="372.5" y1="122" y2="147" stroke="#B0B1B5"/><line x1="385" x2="360" y1="134.5" y2="134.5" stroke="#B0B1B5"/><line x1="132.5" x2="132.5" y1="122" y2="147" stroke="#B0B1B5"/><line x1="145" x2="120" y1="134.5" y2="134.5" stroke="#B0B1B5"/><line x1="12.5" x2="12.5" y1="122" y2="147" stroke="#B0B1B5"/><line x1="25" x2="0" y1="134.5" y2="134.5" stroke="#B0B1B5"/><path stroke="#1A1B1F" stroke-dasharray="6 3" stroke-width="2" d="M192.5 2L208.637 14.2745L228.75 11.7132L236.588 30.4119L255.287 38.25L252.725 58.3626L265 74.5L252.725 90.6374L255.287 110.75L236.588 118.588L228.75 137.287L208.637 134.725L192.5 147L176.363 134.725L156.25 137.287L148.412 118.588L129.713 110.75L132.275 90.6374L120 74.5L132.275 58.3626L129.713 38.25L148.412 30.4119L156.25 11.7132L176.363 14.2745L192.5 2Z" class="anim rev"/><path fill="#D6FFF8" stroke="#1A1B1F" stroke-width="2" d="M163 45H210.008L222 56.9919V104H163V45Z"/><rect width="12" height="12" fill="#fff" stroke="#1A1B1F" stroke-width="2" transform="matrix(0.707107 0.707106 -0.707107 0.707106 208.891 82)"/><path stroke="#1A1B1F" stroke-width="2" d="M209 45V58H222"/><line x1="168.804" x2="205.558" y1="63.377" y2="63.377" stroke="#1A1B1F" stroke-width="2"/><line x1="168.804" x2="193.468" y1="69.664" y2="69.664" stroke="#1A1B1F" stroke-width="2"/></svg>