<svg xmlns="http://www.w3.org/2000/svg" xmlns:xlink="http://www.w3.org/1999/xlink" id="Layer_1" x="0" y="0" version="1.1" viewBox="0 0 48 48" xml:space="preserve" style="enable-background:new 0 0 48 48"><style type="text/css">.st0{clip-path:url(#SVGID_2_)}.st1{fill:#db4437}.st2{fill:url(#SVGID_3_)}.st3{clip-path:url(#SVGID_5_);fill:#3e2723;fill-opacity:.15}.st4{clip-path:url(#SVGID_7_)}.st5{fill:#0f9d58}.st6{fill:url(#SVGID_8_)}.st7{clip-path:url(#SVGID_10_);fill:#263238;fill-opacity:.15}.st8{clip-path:url(#SVGID_12_)}.st9{clip-path:url(#SVGID_14_)}.st10{fill:#ffcd40}.st11{fill:url(#SVGID_15_)}.st12{clip-path:url(#SVGID_17_)}.st13{fill:url(#SVGID_18_)}.st14{clip-path:url(#SVGID_20_)}.st15{clip-path:url(#SVGID_22_)}.st16{fill:url(#SVGID_23_)}.st17{clip-path:url(#SVGID_25_);fill:url(#SVGID_26_)}.st18{clip-path:url(#SVGID_28_)}.st19{clip-path:url(#SVGID_30_)}.st20{fill:url(#SVGID_31_)}.st21{clip-path:url(#SVGID_33_);fill:url(#SVGID_34_)}.st22{clip-path:url(#SVGID_36_);fill:url(#SVGID_37_)}.st23{clip-path:url(#SVGID_39_)}.st24{fill:#f1f1f1}.st25{fill:#4285f4}.st26{clip-path:url(#SVGID_41_)}.st27{fill:#3e2723;fill-opacity:.2}.st28{fill:#fff;fill-opacity:.1}.st29{opacity:.1;fill:#3e2723;enable-background:new}.st30{fill:#fff;fill-opacity:.2}.st31{clip-path:url(#SVGID_43_)}.st32{fill:#3e2723;fill-opacity:.15}.st33{fill:url(#SVGID_44_)}</style><g><defs><circle id="SVGID_1_" cx="24" cy="24" r="22"/></defs><clipPath id="SVGID_2_"><use xlink:href="#SVGID_1_" style="overflow:visible"/></clipPath><g class="st0"><path d="M5.5,2v27h9.8L24,14h22V2H5.5z" class="st1"/><linearGradient id="SVGID_3_" x1="2834.337" x2="2886.837" y1="-1570.021" y2="-1539.353" gradientTransform="matrix(0.25 0 0 -0.25 -701.25 -373.75)" gradientUnits="userSpaceOnUse"><stop offset="0" style="stop-color:#a52714;stop-opacity:.6"/><stop offset=".66" style="stop-color:#a52714;stop-opacity:0"/></linearGradient><path d="M5.5,2v27h9.8L24,14h22V2H5.5z" class="st2"/></g></g><g><defs><circle id="SVGID_4_" cx="24" cy="24" r="22"/></defs><clipPath id="SVGID_5_"><use xlink:href="#SVGID_4_" style="overflow:visible"/></clipPath><path d="M15.6,28.9l-10-17.1l-0.1,0.2l9.9,17L15.6,28.9z" class="st3"/></g><g><defs><circle id="SVGID_6_" cx="24" cy="24" r="22"/></defs><clipPath id="SVGID_7_"><use xlink:href="#SVGID_6_" style="overflow:visible"/></clipPath><g class="st4"><path d="M2,46h20.9l9.7-9.7V29H15.3L2,6.1V46z" class="st5"/><linearGradient id="SVGID_8_" x1="2915.874" x2="2857.539" y1="-1659.493" y2="-1625.326" gradientTransform="matrix(0.25 0 0 -0.25 -701.25 -373.75)" gradientUnits="userSpaceOnUse"><stop offset="0" style="stop-color:#055524;stop-opacity:.4"/><stop offset=".33" style="stop-color:#055524;stop-opacity:0"/></linearGradient><path d="M2,46h20.9l9.7-9.7V29H15.3L2,6.1V46z" class="st6"/></g></g><g><defs><circle id="SVGID_9_" cx="24" cy="24" r="22"/></defs><clipPath id="SVGID_10_"><use xlink:href="#SVGID_9_" style="overflow:visible"/></clipPath><path d="M32.5,29.3l-0.2-0.1L22.7,46h0.3L32.5,29.3L32.5,29.3z" class="st7"/></g><g><defs><circle id="SVGID_11_" cx="24" cy="24" r="22"/></defs><clipPath id="SVGID_12_"><use xlink:href="#SVGID_11_" style="overflow:visible"/></clipPath><g class="st8"><g><defs><polygon id="SVGID_13_" points="2 46 22.9 46 32.7 36.3 32.7 29 15.3 29 2 6.1"/></defs><clipPath id="SVGID_14_"><use xlink:href="#SVGID_13_" style="overflow:visible"/></clipPath><g class="st9"><path d="M24,14l8.7,15l-9.7,17H46V14H24z" class="st10"/><linearGradient id="SVGID_15_" x1="2926.856" x2="2941.545" y1="-1544.805" y2="-1609.13" gradientTransform="matrix(0.25 0 0 -0.25 -701.25 -373.75)" gradientUnits="userSpaceOnUse"><stop offset="0" style="stop-color:#ea6100;stop-opacity:.3"/><stop offset=".66" style="stop-color:#ea6100;stop-opacity:0"/></linearGradient><path d="M24,14l8.7,15l-9.7,17H46V14H24z" class="st11"/></g></g></g></g><g><defs><circle id="SVGID_16_" cx="24" cy="24" r="22"/></defs><clipPath id="SVGID_17_"><use xlink:href="#SVGID_16_" style="overflow:visible"/></clipPath><g class="st12"><path d="M24,14l8.7,15l-9.7,17H46V14H24z" class="st10"/><linearGradient id="SVGID_18_" x1="2926.856" x2="2941.545" y1="-1544.805" y2="-1609.13" gradientTransform="matrix(0.25 0 0 -0.25 -701.25 -373.75)" gradientUnits="userSpaceOnUse"><stop offset="0" style="stop-color:#ea6100;stop-opacity:.3"/><stop offset=".66" style="stop-color:#ea6100;stop-opacity:0"/></linearGradient><path d="M24,14l8.7,15l-9.7,17H46V14H24z" class="st13"/></g></g><g><defs><circle id="SVGID_19_" cx="24" cy="24" r="22"/></defs><clipPath id="SVGID_20_"><use xlink:href="#SVGID_19_" style="overflow:visible"/></clipPath><g class="st14"><g><defs><polygon id="SVGID_21_" points="24 14 32.7 29 22.9 46 46 46 46 14"/></defs><clipPath id="SVGID_22_"><use xlink:href="#SVGID_21_" style="overflow:visible"/></clipPath><g class="st15"><path d="M5.5,2v27h9.8L24,14h22V2H5.5z" class="st1"/><linearGradient id="SVGID_23_" x1="2834.337" x2="2886.837" y1="-1570.021" y2="-1539.353" gradientTransform="matrix(0.25 0 0 -0.25 -701.25 -373.75)" gradientUnits="userSpaceOnUse"><stop offset="0" style="stop-color:#a52714;stop-opacity:.6"/><stop offset=".66" style="stop-color:#a52714;stop-opacity:0"/></linearGradient><path d="M5.5,2v27h9.8L24,14h22V2H5.5z" class="st16"/></g></g></g></g><g><defs><circle id="SVGID_24_" cx="24" cy="24" r="22"/></defs><clipPath id="SVGID_25_"><use xlink:href="#SVGID_24_" style="overflow:visible"/></clipPath><radialGradient id="SVGID_26_" cx="3473.176" cy="-1550.948" r="84.078" gradientTransform="matrix(0.25 0 0 -0.25 -845.25 -373.75)" gradientUnits="userSpaceOnUse"><stop offset="0" style="stop-color:#3e2723;stop-opacity:.2"/><stop offset="1" style="stop-color:#3e2723;stop-opacity:0"/></radialGradient><path d="M24,14v5.2L43.6,14H24z" class="st17"/></g><g><defs><circle id="SVGID_27_" cx="24" cy="24" r="22"/></defs><clipPath id="SVGID_28_"><use xlink:href="#SVGID_27_" style="overflow:visible"/></clipPath><g class="st18"><g><defs><polygon id="SVGID_29_" points="5.5 2 5.5 12.1 15.3 29 24 14 46 14 46 2"/></defs><clipPath id="SVGID_30_"><use xlink:href="#SVGID_29_" style="overflow:visible"/></clipPath><g class="st19"><path d="M2,46h20.9l9.7-9.7V29H15.3L2,6.1V46z" class="st5"/><linearGradient id="SVGID_31_" x1="2915.874" x2="2857.539" y1="-1659.493" y2="-1625.326" gradientTransform="matrix(0.25 0 0 -0.25 -701.25 -373.75)" gradientUnits="userSpaceOnUse"><stop offset="0" style="stop-color:#055524;stop-opacity:.4"/><stop offset=".33" style="stop-color:#055524;stop-opacity:0"/></linearGradient><path d="M2,46h20.9l9.7-9.7V29H15.3L2,6.1V46z" class="st20"/></g></g></g></g><g><defs><circle id="SVGID_32_" cx="24" cy="24" r="22"/></defs><clipPath id="SVGID_33_"><use xlink:href="#SVGID_32_" style="overflow:visible"/></clipPath><radialGradient id="SVGID_34_" cx="3402.875" cy="-1543.52" r="78.044" gradientTransform="matrix(0.25 0 0 -0.25 -845.25 -373.75)" gradientUnits="userSpaceOnUse"><stop offset="0" style="stop-color:#3e2723;stop-opacity:.2"/><stop offset="1" style="stop-color:#3e2723;stop-opacity:0"/></radialGradient><path d="M5.5,12.1l14.3,14.3L15.3,29L5.5,12.1z" class="st21"/></g><g><defs><circle id="SVGID_35_" cx="24" cy="24" r="22"/></defs><clipPath id="SVGID_36_"><use xlink:href="#SVGID_35_" style="overflow:visible"/></clipPath><radialGradient id="SVGID_37_" cx="3476.844" cy="-1591.138" r="87.87" gradientTransform="matrix(0.25 0 0 -0.25 -845.25 -373.75)" gradientUnits="userSpaceOnUse"><stop offset="0" style="stop-color:#263238;stop-opacity:.2"/><stop offset="1" style="stop-color:#263238;stop-opacity:0"/></radialGradient><path d="M23,46l5.2-19.5l4.5,2.6L23,46z" class="st22"/></g><g><defs><circle id="SVGID_38_" cx="24" cy="24" r="22"/></defs><clipPath id="SVGID_39_"><use xlink:href="#SVGID_38_" style="overflow:visible"/></clipPath><g class="st23"><circle cx="24" cy="24" r="10" class="st24"/><circle cx="24" cy="24" r="8" class="st25"/></g></g><g><defs><circle id="SVGID_40_" cx="24" cy="24" r="22"/></defs><clipPath id="SVGID_41_"><use xlink:href="#SVGID_40_" style="overflow:visible"/></clipPath><g class="st26"><path d="M24,13.8c-5.5,0-10,4.5-10,10V24c0-5.5,4.5-10,10-10h22v-0.2H24z" class="st27"/><path d="M32.7,29c-1.7,3-5,5-8.6,5c-3.7,0-6.9-2-8.7-5h0L2,6.1v0.2l13.3,22.9h0c1.7,3,5,5,8.7,5c3.7,0,6.9-2,8.6-5h0 L32.7,29L32.7,29z" class="st28"/><path d="M24.2,14c0,0-0.1,0-0.1,0c5.5,0.1,9.9,4.5,9.9,10s-4.4,9.9-9.9,10c0,0,0.1,0,0.1,0c5.5,0,10-4.5,10-10 S29.8,14,24.2,14z" class="st29"/><path d="M32.8,29.3c0.8-1.5,1.3-3.2,1.3-5c0-1.1-0.2-2.1-0.5-3c0.2,0.9,0.4,1.8,0.4,2.7c0,1.8-0.5,3.5-1.3,5l0,0 l-9.7,17h0.3L32.8,29.3C32.8,29.3,32.8,29.3,32.8,29.3z" class="st30"/></g></g><g><defs><circle id="SVGID_42_" cx="24" cy="24" r="22"/></defs><clipPath id="SVGID_43_"><use xlink:href="#SVGID_42_" style="overflow:visible"/></clipPath><g class="st31"><path d="M24,2.2c12.1,0,21.9,9.8,22,21.9c0,0,0-0.1,0-0.1c0-12.1-9.9-22-22-22S2,11.9,2,24c0,0,0,0.1,0,0.1 C2.1,12,11.9,2.2,24,2.2z" class="st30"/><path d="M24,45.8c12.1,0,21.9-9.8,22-21.9c0,0,0,0.1,0,0.1c0,12.2-9.9,22-22,22S2,36.2,2,24c0,0,0-0.1,0-0.1 C2.1,36,11.9,45.8,24,45.8z" class="st32"/></g></g><radialGradient id="SVGID_44_" cx="2839.286" cy="-1527.014" r="176.746" gradientTransform="matrix(0.25 0 0 -0.25 -701.25 -373.75)" gradientUnits="userSpaceOnUse"><stop offset="0" style="stop-color:#fff;stop-opacity:.1"/><stop offset="1" style="stop-color:#fff;stop-opacity:0"/></radialGradient><circle cx="24" cy="24" r="22" class="st33"/></svg>