<svg xmlns="http://www.w3.org/2000/svg" viewBox="0 0 775 253"><defs><style>.a{fill:#d4f7da}.a,.c,.e,.f,.g,.j,.k{stroke:#1a1b1f}.a,.c,.e,.f,.g,.h,.j,.k{stroke-miterlimit:10}.b,.k{fill:#1a1b1f}.c,.e,.f,.g,.h{fill:none}.d,.j{fill:#fff}.e{stroke-dasharray:11 4.4}.f{stroke-dasharray:7.78 3.11}.g{stroke-width:2px}.h{stroke:#1a1b1e}.i{fill:#1a1b1e}</style></defs><title>05</title><polyline points="201.57 156 225.57 156 225.57 1 102.57 1 102.57 49" class="a"/><polyline points="177.57 204 201.57 204 201.57 49 78.57 49 78.57 97" class="a"/><rect width="123" height="155" x="54.57" y="97" class="a"/><path d="M166.94,231.91h-4.78L161,235.77h-1.69l4.17-13.53h2.16l4.18,13.53h-1.74ZM164.46,224l-1.91,6.53h4L164.64,224Z" class="b"/><line x1="115.57" x2="115.57" y1="241" y2="252" class="c"/><line x1="115.57" x2="115.57" y1="205" y2="217" class="c"/><line x1="115.57" x2="115.57" y1="169.01" y2="181.01" class="c"/><line x1="115.57" x2="115.57" y1="133" y2="145" class="c"/><rect width="76" height="24" x="67.57" y="217" class="c" transform="translate(211.14 458) rotate(-180)"/><rect width="76" height="24" x="80.57" y="181" class="c" transform="translate(237.14 386) rotate(-180)"/><rect width="76" height="24" x="75.57" y="145" class="c" transform="translate(227.14 314) rotate(-180)"/><rect width="76" height="24" x="88.57" y="109" class="d"/><polyline points="88.57 128 88.57 133 93.57 133" class="c"/><line x1="97.97" x2="157.37" y1="133" y2="133" class="e"/><polyline points="159.57 133 164.57 133 164.57 128" class="c"/><line x1="164.57" x2="164.57" y1="124.89" y2="115.56" class="f"/><polyline points="164.57 114 164.57 109 159.57 109" class="c"/><line x1="155.17" x2="95.77" y1="109" y2="109" class="e"/><polyline points="93.57 109 88.57 109 88.57 114" class="c"/><line x1="88.57" x2="88.57" y1="117.11" y2="126.44" class="f"/><line x1="149.57" x2="149.57" y1="37" y2="49" class="c"/><rect width="76" height="24" x="122.57" y="13" class="d"/><polyline points="122.57 32 122.57 37 127.57 37" class="c"/><line x1="131.97" x2="191.37" y1="37" y2="37" class="e"/><polyline points="193.57 37 198.57 37 198.57 32" class="c"/><line x1="198.57" x2="198.57" y1="28.89" y2="19.56" class="f"/><polyline points="198.57 18 198.57 13 193.57 13" class="c"/><line x1="189.17" x2="129.77" y1="13" y2="13" class="e"/><polyline points="127.57 13 122.57 13 122.57 18" class="c"/><line x1="122.57" x2="122.57" y1="21.11" y2="30.44" class="f"/><line x1="136.57" x2="136.57" y1="85" y2="97" class="c"/><rect width="76" height="24" x="88.57" y="61" class="d"/><polyline points="88.57 80 88.57 85 93.57 85" class="c"/><line x1="97.97" x2="157.37" y1="85" y2="85" class="e"/><polyline points="159.57 85 164.57 85 164.57 80" class="c"/><line x1="164.57" x2="164.57" y1="76.89" y2="67.56" class="f"/><polyline points="164.57 66 164.57 61 159.57 61" class="c"/><line x1="155.17" x2="95.77" y1="61" y2="61" class="e"/><polyline points="93.57 61 88.57 61 88.57 66" class="c"/><line x1="88.57" x2="88.57" y1="69.11" y2="78.44" class="f"/><path d="M189.76,174.24c2.32,0,3.74,1.37,3.74,3.48a2.83,2.83,0,0,1-2.12,2.91v.06a3,3,0,0,1,2.63,3.18,3.72,3.72,0,0,1-3.67,3.9h-5.21V174.24Zm2,4v-.76c0-1.24-.84-1.86-2.21-1.86h-2.81v4.46h2.81C191,180.11,191.79,179.51,191.79,178.27Zm.48,6v-.8c0-1.35-.91-2.05-2.42-2.05h-3.08v4.9h3.08C191.36,186.35,192.27,185.67,192.27,184.3Z" class="b"/><path d="M209,133c0-4.5,1.62-7,4.93-7a4.29,4.29,0,0,1,4.2,3l-1.41.64c-.49-1.2-1.13-2.19-2.79-2.19-2.16,0-3.2,1.76-3.2,4.47v2.22c0,2.71,1,4.47,3.2,4.47,1.66,0,2.3-1,2.79-2.19l1.41.64a4.29,4.29,0,0,1-4.2,3C210.63,140,209,137.5,209,133Z" class="b"/><polygon points="638.07 42.52 657.56 58.3 682.32 54.38 691.3 77.79 714.72 86.77 710.79 111.54 726.57 131.02 710.79 150.5 714.72 175.27 691.3 184.25 682.32 207.66 657.56 203.74 638.07 219.52 618.59 203.74 593.82 207.66 584.84 184.25 561.43 175.27 565.35 150.5 549.57 131.02 565.35 111.54 561.43 86.77 584.84 77.79 593.82 54.38 618.59 58.3 638.07 42.52" class="c"/><path d="M631.39,149.82a16.46,16.46,0,0,1-16.46,16.46h0a16.46,16.46,0,0,1-16.46-16.46V112.23a16.46,16.46,0,0,1,16.46-16.47h0a16.46,16.46,0,0,1,16.46,16.47" class="g"/><path d="M643.3,166.28v-54a16.46,16.46,0,0,1,16.46-16.47h0a16.47,16.47,0,0,1,16.47,16.47v54.05" class="g"/><line x1="643.3" x2="676.23" y1="138.3" y2="138.3" class="g"/><line x1="536.49" x2="225.57" y1="131.02" y2="131.02" class="h anim"/><polygon points="530.04 124.02 529.36 124.75 536.1 131.02 529.36 137.29 530.04 138.02 537.57 131.02 533.17 126.93 530.04 124.02" class="i"/><path d="M201.07,180h71.5a24.5,24.5,0,0,0,24.5-24.5h0a24.5,24.5,0,0,1,24.5-24.5" class="h anim rev"/><path d="M177.57,229h46a24.5,24.5,0,0,0,24.5-24.5h0a24.5,24.5,0,0,1,24.5-24.5" class="h anim rev"/><circle cx="363.07" cy="131.02" r="13" class="j"/><circle cx="363.07" cy="131.02" r="1" class="k"/><line x1="363.07" x2="375.06" y1="131.02" y2="125.97" class="c"/><line x1="356.46" x2="363.07" y1="126.6" y2="131.02" class="c"/><circle cx="389.07" cy="131.02" r="13" class="j"/><circle cx="389.07" cy="131.02" r="1" class="k"/><line x1="389.07" x2="401.95" y1="131.02" y2="129.23" class="c"/><line x1="382.44" x2="389.07" y1="126.6" y2="131.02" class="c"/><circle cx="415.07" cy="131.02" r="13" class="j"/><circle cx="415.07" cy="131.02" r="1" class="k"/><line x1="415.07" x2="427.99" y1="131.02" y2="132.46" class="c"/><line x1="408.34" x2="415.07" y1="126.6" y2="131.02" class="c"/><circle cx="249.06" cy="131.02" r="13" class="j"/><circle cx="249.06" cy="131.02" r="1" class="k"/><line x1="249.06" x2="261.06" y1="131.02" y2="125.97" class="c"/><line x1="242.45" x2="249.06" y1="126.6" y2="131.02" class="c"/><circle cx="225.06" cy="180.11" r="13" class="j"/><circle cx="225.06" cy="180.11" r="1" class="k"/><line x1="225.06" x2="237.94" y1="180.11" y2="178.32" class="c"/><line x1="218.43" x2="225.06" y1="175.69" y2="180.11" class="c"/><circle cx="201.06" cy="229.02" r="13" class="j"/><circle cx="201.06" cy="229.02" r="1" class="k"/><line x1="201.06" x2="213.99" y1="229.02" y2="230.46" class="c"/><line x1="194.33" x2="201.06" y1="224.6" y2="229.02" class="c"/></svg>