<svg xmlns="http://www.w3.org/2000/svg" xmlns:xlink="http://www.w3.org/1999/xlink" id="Layer_1" x="0" y="0" version="1.1" viewBox="0 0 1270 294" xml:space="preserve" style="enable-background:new 0 0 1270 294"><style type="text/css">.st0{fill:none;stroke:#b0b1b5}.st1,.st2{fill:none;stroke:#1a1b1f;stroke-width:2}.st2{stroke:#000;stroke-dasharray:6,3}.st3,.st4{fill:#ffe7db;stroke:#1a1b1f;stroke-width:2}.st4{fill:none;stroke-dasharray:6,3}</style><line x1="25.5" x2="25.5" y1="0" y2="50" class="st0"/><line x1="50" x2="0" y1="25.5" y2="25.5" class="st0"/><line x1="1123.5" x2="1123.5" y1="0" y2="50" class="st0"/><line x1="1148" x2="1098" y1="25.5" y2="25.5" class="st0"/><line x1="1245.5" x2="1245.5" y1="0" y2="50" class="st0"/><line x1="1270" x2="1220" y1="25.5" y2="25.5" class="st0"/><line x1="1001.5" x2="1001.5" y1="0" y2="50" class="st0"/><line x1="1026" x2="976" y1="25.5" y2="25.5" class="st0"/><line x1="879.5" x2="879.5" y1="0" y2="50" class="st0"/><line x1="904" x2="854" y1="25.5" y2="25.5" class="st0"/><line x1="757.5" x2="757.5" y1="0" y2="50" class="st0"/><line x1="782" x2="732" y1="25.5" y2="25.5" class="st0"/><line x1="25.5" x2="25.5" y1="122" y2="172" class="st0"/><line x1="50" x2="0" y1="147.5" y2="147.5" class="st0"/><line x1="1123.5" x2="1123.5" y1="122" y2="172" class="st0"/><line x1="1148" x2="1098" y1="147.5" y2="147.5" class="st0"/><line x1="1245.5" x2="1245.5" y1="122" y2="172" class="st0"/><line x1="1270" x2="1220" y1="147.5" y2="147.5" class="st0"/><line x1="1001.5" x2="1001.5" y1="122" y2="172" class="st0"/><line x1="1026" x2="976" y1="147.5" y2="147.5" class="st0"/><line x1="879.5" x2="879.5" y1="122" y2="172" class="st0"/><line x1="904" x2="854" y1="147.5" y2="147.5" class="st0"/><line x1="757.5" x2="757.5" y1="122" y2="172" class="st0"/><line x1="782" x2="732" y1="147.5" y2="147.5" class="st0"/><line x1="25.5" x2="25.5" y1="244" y2="294" class="st0"/><line x1="50" x2="0" y1="269.5" y2="269.5" class="st0"/><line x1="1123.5" x2="1123.5" y1="244" y2="294" class="st0"/><line x1="1148" x2="1098" y1="269.5" y2="269.5" class="st0"/><line x1="1245.5" x2="1245.5" y1="244" y2="294" class="st0"/><line x1="1270" x2="1220" y1="269.5" y2="269.5" class="st0"/><line x1="1001.5" x2="1001.5" y1="244" y2="294" class="st0"/><line x1="1026" x2="976" y1="269.5" y2="269.5" class="st0"/><line x1="879.5" x2="879.5" y1="244" y2="294" class="st0"/><line x1="904" x2="854" y1="269.5" y2="269.5" class="st0"/><line x1="757.5" x2="757.5" y1="244" y2="294" class="st0"/><line x1="782" x2="732" y1="269.5" y2="269.5" class="st0"/><path d="M977,63l24,24l-24,24" class="st1"/><path d="M818,147v61h60" class="anim st2"/><path d="M1001,208h62v-59" class="anim st2"/><path d="M1026,232l-24-24l24-24" class="st1"/><path d="M794,172l24-24l24,24" class="st1"/><path d="M758,26h96.4L879,50.6V147H758V26z" class="st1"/><rect width="26" height="26" x="841" y="109.4" class="st3" transform="matrix(0.7071 -0.7071 0.7071 0.7071 163.5876 639.705)"/><path d="M854,26v25h25" class="st1"/><line x1="770" x2="846" y1="62" y2="62" class="st1"/><line x1="770" x2="821" y1="75" y2="75" class="st1"/><rect width="72" height="23" x="1015" y="75" class="st3"/><rect width="72" height="23" x="1038" y="111" class="st3"/><rect width="72" height="23" x="1026" y="39" class="st3"/><line x1="1063" x2="1063" y1="62" y2="75" class="st1"/><line x1="1063" x2="1063" y1="135" y2="146.5" class="st1"/><line x1="1063" x2="1063" y1="98" y2="111" class="st1"/><rect width="121" height="121" x="1002" y="26" class="st1"/><path d="M1001,87H880" class="anim st2"/><ellipse cx="940.5" cy="208.5" class="st3" rx="60.5" ry="60.5"/><ellipse cx="941" cy="208.5" class="st1" rx="43" ry="60.5"/><ellipse cx="940.5" cy="208.5" class="st1" rx="22.5" ry="60.5"/><line x1="940" x2="940" y1="148" y2="270" class="st1"/><line x1="1001" x2="879" y1="208" y2="208" class="anim st4"/><path d="M994,238.2H887" class="anim st4"/><path d="M994,179H887" class="anim st4"/></svg>