<svg xmlns="http://www.w3.org/2000/svg" xmlns:xlink="http://www.w3.org/1999/xlink" id="Layer_1" x="0" y="0" version="1.1" viewBox="0 0 385 145" xml:space="preserve" style="enable-background:new 0 0 385 145"><style type="text/css">.st0,.st1{fill:none;stroke:#b0b1b5}.st1{stroke:#1a1b1f;stroke-width:2}.st2{stroke-miterlimit:4}.st2,.st3,.st4{fill:#ffe7db;stroke:#1a1b1f;stroke-width:2}.st4{fill:none;stroke-dasharray:6,3}</style><line x1="252.5" x2="252.5" y1="0" y2="25" class="st0"/><line x1="265" x2="240" y1="12.5" y2="12.5" class="st0"/><line x1="312.5" x2="312.5" y1="0" y2="25" class="st0"/><line x1="325" x2="300" y1="12.5" y2="12.5" class="st0"/><line x1="192.5" x2="192.5" y1="0" y2="25" class="st0"/><line x1="205" x2="180" y1="12.5" y2="12.5" class="st0"/><line x1="72.5" x2="72.5" y1="0" y2="25" class="st0"/><line x1="85" x2="60" y1="12.5" y2="12.5" class="st0"/><line x1="372.5" x2="372.5" y1="0" y2="25" class="st0"/><line x1="385" x2="360" y1="12.5" y2="12.5" class="st0"/><line x1="132.5" x2="132.5" y1="0" y2="25" class="st0"/><line x1="145" x2="120" y1="12.5" y2="12.5" class="st0"/><line x1="12.5" x2="12.5" y1="0" y2="25" class="st0"/><line x1="25" x2="0" y1="12.5" y2="12.5" class="st0"/><line x1="252.5" x2="252.5" y1="60" y2="85" class="st0"/><line x1="265" x2="240" y1="72.5" y2="72.5" class="st0"/><line x1="312.5" x2="312.5" y1="60" y2="85" class="st0"/><line x1="325" x2="300" y1="72.5" y2="72.5" class="st0"/><line x1="192.5" x2="192.5" y1="60" y2="85" class="st0"/><line x1="205" x2="180" y1="72.5" y2="72.5" class="st0"/><line x1="72.5" x2="72.5" y1="60" y2="85" class="st0"/><line x1="85" x2="60" y1="72.5" y2="72.5" class="st0"/><line x1="372.5" x2="372.5" y1="60" y2="85" class="st0"/><line x1="385" x2="360" y1="72.5" y2="72.5" class="st0"/><line x1="132.5" x2="132.5" y1="60" y2="85" class="st0"/><line x1="145" x2="120" y1="72.5" y2="72.5" class="st0"/><line x1="12.5" x2="12.5" y1="60" y2="85" class="st0"/><line x1="25" x2="0" y1="72.5" y2="72.5" class="st0"/><line x1="252.5" x2="252.5" y1="120" y2="145" class="st0"/><line x1="265" x2="240" y1="132.5" y2="132.5" class="st0"/><line x1="312.5" x2="312.5" y1="120" y2="145" class="st0"/><line x1="325" x2="300" y1="132.5" y2="132.5" class="st0"/><line x1="192.5" x2="192.5" y1="120" y2="145" class="st0"/><line x1="205" x2="180" y1="132.5" y2="132.5" class="st0"/><line x1="72.5" x2="72.5" y1="120" y2="145" class="st0"/><line x1="85" x2="60" y1="132.5" y2="132.5" class="st0"/><line x1="372.5" x2="372.5" y1="120" y2="145" class="st0"/><line x1="385" x2="360" y1="132.5" y2="132.5" class="st0"/><line x1="132.5" x2="132.5" y1="120" y2="145" class="st0"/><line x1="145" x2="120" y1="132.5" y2="132.5" class="st0"/><line x1="12.5" x2="12.5" y1="120" y2="145" class="st0"/><line x1="25" x2="0" y1="132.5" y2="132.5" class="st0"/><path d="M73,13h47l12,12v47H73V13z" class="st1"/><rect width="12" height="12" x="112.9" y="52.5" class="st2" transform="matrix(0.7071 -0.7071 0.7071 0.7071 -6.5329 101.1987)"/><path d="M119,13v13h13" class="st1"/><line x1="78.8" x2="115.6" y1="31.4" y2="31.4" class="st1"/><line x1="78.8" x2="103.5" y1="37.7" y2="37.7" class="st1"/><rect width="35" height="11" x="259" y="37" class="st3"/><rect width="35" height="11" x="271" y="55" class="st3"/><rect width="35" height="11" x="266" y="19" class="st3"/><line x1="283" x2="283" y1="30.6" y2="36.9" class="st1"/><line x1="283" x2="283" y1="66.1" y2="71.8" class="st1"/><line x1="283" x2="283" y1="48.1" y2="54.4" class="st1"/><rect width="59" height="59" x="253" y="13" class="st1"/><path d="M236,114l-12-12l12-12" class="st1"/><path d="M224,102h59V73" class="anim st4"/><path d="M91,86l12-12l12,12" class="st1"/><path d="M103,74v28h59" class="anim st4"/><path d="M239,30l12,12l-12,12" class="st1"/><path d="M251,42H133" class="anim st4"/><ellipse cx="192.5" cy="102.5" class="st3" rx="29.5" ry="29.5"/><ellipse cx="192.5" cy="102.5" class="st1" rx="21.5" ry="29.5"/><ellipse cx="192.5" cy="102.5" class="st1" rx="11.5" ry="29.5"/><line x1="193" x2="193" y1="73" y2="132" class="st1"/><path d="M222,102h-59" class="anim st4"/><path d="M219,116h-53" class="anim st4"/><path d="M218,88h-51" class="anim st4"/></svg>