<svg xmlns="http://www.w3.org/2000/svg" xmlns:xlink="http://www.w3.org/1999/xlink" id="Layer_1" x="0" y="0" version="1.1" viewBox="0 0 1270 294" xml:space="preserve" style="enable-background:new 0 0 1270 294"><style type="text/css">.st0{fill:none;stroke:#b0b1b5}.st1,.st2,.st3{fill:#d4f7da;stroke:#1a1b1f;stroke-width:2}.st2,.st3{fill:none}.st3{stroke-dasharray:6.2162,3.1081}</style><line x1="25.5" x2="25.5" y1="0" y2="50" class="st0"/><line x1="50" x2="0" y1="25.5" y2="25.5" class="st0"/><line x1="1123.5" x2="1123.5" y1="0" y2="50" class="st0"/><line x1="1148" x2="1098" y1="25.5" y2="25.5" class="st0"/><line x1="1245.5" x2="1245.5" y1="0" y2="50" class="st0"/><line x1="1270" x2="1220" y1="25.5" y2="25.5" class="st0"/><line x1="1001.5" x2="1001.5" y1="0" y2="50" class="st0"/><line x1="1026" x2="976" y1="25.5" y2="25.5" class="st0"/><line x1="879.5" x2="879.5" y1="0" y2="50" class="st0"/><line x1="904" x2="854" y1="25.5" y2="25.5" class="st0"/><line x1="757.5" x2="757.5" y1="0" y2="50" class="st0"/><line x1="782" x2="732" y1="25.5" y2="25.5" class="st0"/><line x1="25.5" x2="25.5" y1="122" y2="172" class="st0"/><line x1="50" x2="0" y1="147.5" y2="147.5" class="st0"/><line x1="1123.5" x2="1123.5" y1="122" y2="172" class="st0"/><line x1="1148" x2="1098" y1="147.5" y2="147.5" class="st0"/><line x1="1245.5" x2="1245.5" y1="122" y2="172" class="st0"/><line x1="1270" x2="1220" y1="147.5" y2="147.5" class="st0"/><line x1="1001.5" x2="1001.5" y1="122" y2="172" class="st0"/><line x1="1026" x2="976" y1="147.5" y2="147.5" class="st0"/><line x1="879.5" x2="879.5" y1="122" y2="172" class="st0"/><line x1="904" x2="854" y1="147.5" y2="147.5" class="st0"/><line x1="757.5" x2="757.5" y1="122" y2="172" class="st0"/><line x1="782" x2="732" y1="147.5" y2="147.5" class="st0"/><line x1="25.5" x2="25.5" y1="244" y2="294" class="st0"/><line x1="50" x2="0" y1="269.5" y2="269.5" class="st0"/><line x1="1123.5" x2="1123.5" y1="244" y2="294" class="st0"/><line x1="1148" x2="1098" y1="269.5" y2="269.5" class="st0"/><line x1="1245.5" x2="1245.5" y1="244" y2="294" class="st0"/><line x1="1270" x2="1220" y1="269.5" y2="269.5" class="st0"/><line x1="1001.5" x2="1001.5" y1="244" y2="294" class="st0"/><line x1="1026" x2="976" y1="269.5" y2="269.5" class="st0"/><line x1="879.5" x2="879.5" y1="244" y2="294" class="st0"/><line x1="904" x2="854" y1="269.5" y2="269.5" class="st0"/><line x1="757.5" x2="757.5" y1="244" y2="294" class="st0"/><line x1="782" x2="732" y1="269.5" y2="269.5" class="st0"/><rect width="72" height="23" x="771" y="197" class="st1"/><rect width="72" height="23" x="794" y="233" class="st1"/><rect width="72" height="23" x="783" y="161" class="st1"/><line x1="819" x2="819" y1="184" y2="197" class="st2"/><line x1="819" x2="819" y1="257" y2="268.5" class="st2"/><line x1="819" x2="819" y1="220" y2="233" class="st2"/><rect width="72" height="23" x="794" y="75" class="st1"/><rect width="72" height="23" x="783" y="111" class="st1"/><rect width="72" height="23" x="771" y="39" class="st1"/><line x1="819" x2="819" y1="62" y2="75" class="st2"/><line x1="819" x2="819" y1="135" y2="146.5" class="st2"/><line x1="819" x2="819" y1="98" y2="111" class="st2"/><rect width="72" height="23" x="904" y="75" class="st1"/><rect width="72" height="23" x="916" y="111" class="st1"/><rect width="72" height="23" x="893" y="39" class="st1"/><line x1="941" x2="941" y1="62" y2="75" class="st2"/><line x1="941" x2="941" y1="135" y2="146.5" class="st2"/><line x1="941" x2="941" y1="98" y2="111" class="st2"/><rect width="72" height="23" x="1027" y="197" class="st1"/><rect width="72" height="23" x="1015" y="233" class="st1"/><rect width="72" height="23" x="1038" y="161" class="st1"/><line x1="1063" x2="1063" y1="184" y2="197" class="st2"/><line x1="1063" x2="1063" y1="257" y2="268.5" class="st2"/><line x1="1063" x2="1063" y1="220" y2="233" class="st2"/><rect width="72" height="23" x="1015" y="75" class="st1"/><rect width="72" height="23" x="1038" y="111" class="st1"/><rect width="72" height="23" x="1027" y="39" class="st1"/><line x1="1063" x2="1063" y1="62" y2="75" class="st2"/><line x1="1063" x2="1063" y1="135" y2="146.5" class="st2"/><line x1="1063" x2="1063" y1="98" y2="111" class="st2"/><rect width="72" height="23" x="916" y="197" class="st1"/><rect width="72" height="23" x="904" y="233" class="st1"/><rect width="72" height="23" x="893" y="161" class="st1"/><line x1="941" x2="941" y1="184" y2="197" class="st2"/><line x1="941" x2="941" y1="257" y2="268.5" class="st2"/><line x1="941" x2="941" y1="220" y2="233" class="st2"/><path d="M880,147h121V26H880" class="anim st3"/><path d="M758,147h121V26H758V147z" class="anim st3"/><path d="M758,148v121h121V148" class="anim st3"/><path d="M1002,147h121V26h-121" class="anim st3"/><path d="M1002,269h121V148" class="anim st3"/><path d="M880,269h121V148" class="anim st3"/></svg>