<svg xmlns="http://www.w3.org/2000/svg" xmlns:xlink="http://www.w3.org/1999/xlink" id="Layer_1" x="0" y="0" version="1.1" viewBox="0 0 538 294" xml:space="preserve" style="enable-background:new 0 0 538 294"><style type="text/css">.st0{fill:none;stroke:#b0b1b5}.st1,.st2,.st3{fill:#d6fff8;stroke:#1a1b1f;stroke-width:2}.st2,.st3{fill:none}.st3{stroke-dasharray:6,3}</style><line x1="513.5" x2="513.5" y1="0" y2="50" class="st0"/><line x1="538" x2="488" y1="25.5" y2="25.5" class="st0"/><line x1="391.5" x2="391.5" y1="0" y2="50" class="st0"/><line x1="416" x2="366" y1="25.5" y2="25.5" class="st0"/><line x1="269.5" x2="269.5" y1="0" y2="50" class="st0"/><line x1="294" x2="244" y1="25.5" y2="25.5" class="st0"/><line x1="147.5" x2="147.5" y1="0" y2="50" class="st0"/><line x1="172" x2="122" y1="25.5" y2="25.5" class="st0"/><line x1="25.5" x2="25.5" y1="0" y2="50" class="st0"/><line x1="50" x2="0" y1="25.5" y2="25.5" class="st0"/><line x1="513.5" x2="513.5" y1="122" y2="172" class="st0"/><line x1="538" x2="488" y1="147.5" y2="147.5" class="st0"/><line x1="391.5" x2="391.5" y1="122" y2="172" class="st0"/><line x1="416" x2="366" y1="147.5" y2="147.5" class="st0"/><line x1="269.5" x2="269.5" y1="122" y2="172" class="st0"/><line x1="294" x2="244" y1="147.5" y2="147.5" class="st0"/><line x1="147.5" x2="147.5" y1="122" y2="172" class="st0"/><line x1="172" x2="122" y1="147.5" y2="147.5" class="st0"/><line x1="25.5" x2="25.5" y1="122" y2="172" class="st0"/><line x1="50" x2="0" y1="147.5" y2="147.5" class="st0"/><line x1="513.5" x2="513.5" y1="244" y2="294" class="st0"/><line x1="538" x2="488" y1="269.5" y2="269.5" class="st0"/><line x1="391.5" x2="391.5" y1="244" y2="294" class="st0"/><line x1="416" x2="366" y1="269.5" y2="269.5" class="st0"/><line x1="269.5" x2="269.5" y1="244" y2="294" class="st0"/><line x1="294" x2="244" y1="269.5" y2="269.5" class="st0"/><line x1="147.5" x2="147.5" y1="244" y2="294" class="st0"/><line x1="172" x2="122" y1="269.5" y2="269.5" class="st0"/><line x1="25.5" x2="25.5" y1="244" y2="294" class="st0"/><line x1="50" x2="0" y1="269.5" y2="269.5" class="st0"/><rect width="72" height="23" x="39" y="197" class="st1"/><rect width="72" height="23" x="62" y="233" class="st1"/><rect width="72" height="23" x="51" y="161" class="st1"/><line x1="87" x2="87" y1="184" y2="197" class="st2"/><line x1="87" x2="87" y1="257" y2="268.5" class="st2"/><line x1="87" x2="87" y1="220" y2="233" class="st2"/><rect width="72" height="23" x="62" y="75" class="st1"/><rect width="72" height="23" x="51" y="111" class="st1"/><rect width="72" height="23" x="39" y="39" class="st1"/><line x1="87" x2="87" y1="62" y2="75" class="st2"/><line x1="87" x2="87" y1="135" y2="146.5" class="st2"/><line x1="87" x2="87" y1="98" y2="111" class="st2"/><path d="M26,26v121h121V26H26z" class="anim st3"/><path d="M148,147h121V26H148" class="anim st3"/><path d="M26,148v121h121V148" class="anim st3"/><path d="M148,269h121V148" class="anim st3"/><rect width="72" height="23" x="172" y="75" class="st1"/><rect width="72" height="23" x="184" y="111" class="st1"/><rect width="72" height="23" x="161" y="39" class="st1"/><line x1="209" x2="209" y1="62" y2="75" class="st2"/><line x1="209" x2="209" y1="135" y2="146.5" class="st2"/><line x1="209" x2="209" y1="98" y2="111" class="st2"/><rect width="72" height="23" x="184" y="197" class="st1"/><rect width="72" height="23" x="172" y="233" class="st1"/><rect width="72" height="23" x="161" y="161" class="st1"/><line x1="209" x2="209" y1="184" y2="197" class="st2"/><line x1="209" x2="209" y1="257" y2="268.5" class="st2"/><line x1="209" x2="209" y1="220" y2="233" class="st2"/></svg>