<svg xmlns="http://www.w3.org/2000/svg" xmlns:xlink="http://www.w3.org/1999/xlink" id="Layer_1" x="0" y="0" version="1.1" viewBox="0 0 538 294" xml:space="preserve" style="enable-background:new 0 0 538 294"><style type="text/css">.st0{fill:none;stroke:#b0b1b5}.st1{fill:#fff}.st2,.st3,.st4{fill:#d6fff8;stroke:#1a1b1f;stroke-width:2}.st3,.st4{fill:none}.st4{stroke-dasharray:6,3}.st5{clip-path:url(#SVGID_2_)}</style><line x1="25.5" x2="25.5" y1="0" y2="50" class="st0"/><line x1="50" x2="0" y1="25.5" y2="25.5" class="st0"/><line x1="25.5" x2="25.5" y1="122" y2="172" class="st0"/><line x1="50" x2="0" y1="147.5" y2="147.5" class="st0"/><line x1="25.5" x2="25.5" y1="244" y2="294" class="st0"/><line x1="50" x2="0" y1="269.5" y2="269.5" class="st0"/><line x1="513.5" x2="513.5" y1="0" y2="50" class="st0"/><line x1="538" x2="488" y1="25.5" y2="25.5" class="st0"/><line x1="513.5" x2="513.5" y1="122" y2="172" class="st0"/><line x1="538" x2="488" y1="147.5" y2="147.5" class="st0"/><line x1="513.5" x2="513.5" y1="244" y2="294" class="st0"/><line x1="538" x2="488" y1="269.5" y2="269.5" class="st0"/><line x1="391.5" x2="391.5" y1="0" y2="50" class="st0"/><line x1="416" x2="366" y1="25.5" y2="25.5" class="st0"/><line x1="269.5" x2="269.5" y1="0" y2="50" class="st0"/><line x1="294" x2="244" y1="25.5" y2="25.5" class="st0"/><line x1="147.5" x2="147.5" y1="0" y2="50" class="st0"/><line x1="172" x2="122" y1="25.5" y2="25.5" class="st0"/><line x1="391.5" x2="391.5" y1="122" y2="172" class="st0"/><line x1="416" x2="366" y1="147.5" y2="147.5" class="st0"/><line x1="269.5" x2="269.5" y1="122" y2="172" class="st0"/><line x1="294" x2="244" y1="147.5" y2="147.5" class="st0"/><line x1="147.5" x2="147.5" y1="122" y2="172" class="st0"/><line x1="172" x2="122" y1="147.5" y2="147.5" class="st0"/><line x1="391.5" x2="391.5" y1="244" y2="294" class="st0"/><line x1="416" x2="366" y1="269.5" y2="269.5" class="st0"/><line x1="269.5" x2="269.5" y1="244" y2="294" class="st0"/><line x1="294" x2="244" y1="269.5" y2="269.5" class="st0"/><line x1="147.5" x2="147.5" y1="244" y2="294" class="st0"/><line x1="172" x2="122" y1="269.5" y2="269.5" class="st0"/><rect width="121" height="121" x="1" y="172" class="st1"/><rect width="72" height="23" x="14" y="221" class="st2"/><rect width="72" height="23" x="37" y="257" class="st2"/><rect width="72" height="23" x="26" y="185" class="st2"/><line x1="62" x2="62" y1="208" y2="221" class="st3"/><line x1="62" x2="62" y1="281" y2="292.5" class="st3"/><line x1="62" x2="62" y1="244" y2="257" class="st3"/><path d="M1,172v121h121V172H1z" class="anim st4"/><rect width="121" height="121" x="172" y="1" class="st1"/><rect width="72" height="23" x="196" y="50" class="st2"/><rect width="72" height="23" x="208" y="86" class="st2"/><rect width="72" height="23" x="185" y="14" class="st2"/><line x1="233" x2="233" y1="37" y2="50" class="st3"/><line x1="233" x2="233" y1="110" y2="121.5" class="st3"/><line x1="233" x2="233" y1="73" y2="86" class="st3"/><path d="M172,1v121h121V1H172z" class="anim st4"/><g><defs><rect id="SVGID_1_" width="195" height="195" x="50" y="50"/></defs><clipPath id="SVGID_2_"><use xlink:href="#SVGID_1_" style="overflow:visible"/></clipPath><g class="st5"><ellipse cx="147.5" cy="147.5" class="st2" rx="96.7" ry="96.7"/><ellipse cx="147.9" cy="147.5" class="st3" rx="68.4" ry="96.7"/><ellipse cx="147.9" cy="147.5" class="st3" rx="35.8" ry="96.7"/><line x1="148.1" x2="148.1" y1="50.8" y2="244.2" class="st3"/><line x1="243.4" x2="50" y1="148.1" y2="148.1" class="anim st4"/><path d="M232.3,194.7H62.7" class="anim st4"/><path d="M232.3,100.7H62.7" class="anim st4"/></g></g></svg>