<svg xmlns="http://www.w3.org/2000/svg" xmlns:xlink="http://www.w3.org/1999/xlink" style="enable-background:new 0 0 1270 294" id="Layer_1" x="0" y="0" version="1.1" viewBox="0 0 1270 294" xml:space="preserve"><style type="text/css">.st0{fill:none;stroke:#b0b1b5}.st1{fill:#d6fff8}.st1,.st2,.st3,.st4,.st5{stroke:#1a1b1f;stroke-width:2}.st2{fill:#d6fff8;stroke-dasharray:6,3}.st3{fill:none}.st4{fill:#fff}.st5{fill:none;stroke-dasharray:6,3}.st6{fill:#d6fff8}.st7{fill:none;stroke:#000;stroke-width:2}</style><line x1="147.5" x2="147.5" y1="0" y2="50" class="st0"/><line x1="172" x2="122" y1="25.5" y2="25.5" class="st0"/><line x1="25.5" x2="25.5" y1="0" y2="50" class="st0"/><line x1="50" x2="0" y1="25.5" y2="25.5" class="st0"/><line x1="1123.5" x2="1123.5" y1="0" y2="50" class="st0"/><line x1="1148" x2="1098" y1="25.5" y2="25.5" class="st0"/><line x1="1245.5" x2="1245.5" y1="0" y2="50" class="st0"/><line x1="1270" x2="1220" y1="25.5" y2="25.5" class="st0"/><line x1="1001.5" x2="1001.5" y1="0" y2="50" class="st0"/><line x1="1026" x2="976" y1="25.5" y2="25.5" class="st0"/><line x1="879.5" x2="879.5" y1="0" y2="50" class="st0"/><line x1="904" x2="854" y1="25.5" y2="25.5" class="st0"/><line x1="757.5" x2="757.5" y1="0" y2="50" class="st0"/><line x1="782" x2="732" y1="25.5" y2="25.5" class="st0"/><line x1="635.5" x2="635.5" y1="0" y2="50" class="st0"/><line x1="660" x2="610" y1="25.5" y2="25.5" class="st0"/><line x1="513.5" x2="513.5" y1="0" y2="50" class="st0"/><line x1="538" x2="488" y1="25.5" y2="25.5" class="st0"/><line x1="391.5" x2="391.5" y1="0" y2="50" class="st0"/><line x1="416" x2="366" y1="25.5" y2="25.5" class="st0"/><line x1="269.5" x2="269.5" y1="0" y2="50" class="st0"/><line x1="294" x2="244" y1="25.5" y2="25.5" class="st0"/><line x1="147.5" x2="147.5" y1="122" y2="172" class="st0"/><line x1="172" x2="122" y1="147.5" y2="147.5" class="st0"/><line x1="25.5" x2="25.5" y1="122" y2="172" class="st0"/><line x1="50" x2="0" y1="147.5" y2="147.5" class="st0"/><line x1="1123.5" x2="1123.5" y1="122" y2="172" class="st0"/><line x1="1148" x2="1098" y1="147.5" y2="147.5" class="st0"/><line x1="1245.5" x2="1245.5" y1="122" y2="172" class="st0"/><line x1="1270" x2="1220" y1="147.5" y2="147.5" class="st0"/><line x1="1001.5" x2="1001.5" y1="122" y2="172" class="st0"/><line x1="1026" x2="976" y1="147.5" y2="147.5" class="st0"/><line x1="879.5" x2="879.5" y1="122" y2="172" class="st0"/><line x1="904" x2="854" y1="147.5" y2="147.5" class="st0"/><line x1="757.5" x2="757.5" y1="122" y2="172" class="st0"/><line x1="782" x2="732" y1="147.5" y2="147.5" class="st0"/><line x1="635.5" x2="635.5" y1="122" y2="172" class="st0"/><line x1="660" x2="610" y1="147.5" y2="147.5" class="st0"/><line x1="513.5" x2="513.5" y1="122" y2="172" class="st0"/><line x1="538" x2="488" y1="147.5" y2="147.5" class="st0"/><line x1="391.5" x2="391.5" y1="122" y2="172" class="st0"/><line x1="416" x2="366" y1="147.5" y2="147.5" class="st0"/><line x1="269.5" x2="269.5" y1="122" y2="172" class="st0"/><line x1="294" x2="244" y1="147.5" y2="147.5" class="st0"/><line x1="147.5" x2="147.5" y1="244" y2="294" class="st0"/><line x1="172" x2="122" y1="269.5" y2="269.5" class="st0"/><line x1="25.5" x2="25.5" y1="244" y2="294" class="st0"/><line x1="50" x2="0" y1="269.5" y2="269.5" class="st0"/><line x1="1123.5" x2="1123.5" y1="244" y2="294" class="st0"/><line x1="1148" x2="1098" y1="269.5" y2="269.5" class="st0"/><line x1="1245.5" x2="1245.5" y1="244" y2="294" class="st0"/><line x1="1270" x2="1220" y1="269.5" y2="269.5" class="st0"/><line x1="1001.5" x2="1001.5" y1="244" y2="294" class="st0"/><line x1="1026" x2="976" y1="269.5" y2="269.5" class="st0"/><line x1="879.5" x2="879.5" y1="244" y2="294" class="st0"/><line x1="904" x2="854" y1="269.5" y2="269.5" class="st0"/><line x1="757.5" x2="757.5" y1="244" y2="294" class="st0"/><line x1="782" x2="732" y1="269.5" y2="269.5" class="st0"/><line x1="635.5" x2="635.5" y1="244" y2="294" class="st0"/><line x1="660" x2="610" y1="269.5" y2="269.5" class="st0"/><line x1="513.5" x2="513.5" y1="244" y2="294" class="st0"/><line x1="538" x2="488" y1="269.5" y2="269.5" class="st0"/><line x1="391.5" x2="391.5" y1="244" y2="294" class="st0"/><line x1="416" x2="366" y1="269.5" y2="269.5" class="st0"/><line x1="269.5" x2="269.5" y1="244" y2="294" class="st0"/><line x1="294" x2="244" y1="269.5" y2="269.5" class="st0"/><rect width="72" height="23" x="527" y="197" class="st1"/><rect width="72" height="23" x="550" y="233" class="st1"/><rect width="72" height="23" x="539" y="161" class="rev st2 anim"/><line x1="575" x2="575" y1="184" y2="197" class="st3"/><line x1="575" x2="575" y1="257" y2="268.5" class="st3"/><line x1="575" x2="575" y1="220" y2="233" class="st3"/><path d="M636,26v121h121V26H636z" class="st3"/><path d="M514,269h121V148H514V269z" class="st3"/><path d="M757,148v121H636" class="st3"/><rect width="72" height="23" x="660" y="75" class="st1"/><rect width="72" height="23" x="672" y="111" class="st1"/><rect width="72" height="23" x="649" y="39" class="anim rev st2"/><line x1="697" x2="697" y1="62" y2="75" class="st3"/><line x1="697" x2="697" y1="135" y2="146.5" class="st3"/><line x1="697" x2="697" y1="98" y2="111" class="st3"/><rect width="72" height="23" x="672" y="197" class="st1"/><rect width="72" height="23" x="660" y="233" class="st1"/><rect width="72" height="23" x="649" y="161" class="anim rev st2"/><line x1="697" x2="697" y1="184" y2="197" class="st3"/><line x1="697" x2="697" y1="257" y2="268.5" class="st3"/><line x1="697" x2="697" y1="220" y2="233" class="st3"/><path d="M489,1h96.4L610,25.6V122H489V1z" class="st1"/><rect width="26" height="26" x="572" y="84.4" class="st4" transform="matrix(0.7071 -0.7071 0.7071 0.7071 102.477 442.1709)"/><path d="M585,1v25h25" class="st3"/><line x1="501" x2="577" y1="37" y2="37" class="st3"/><line x1="501" x2="552" y1="50" y2="50" class="st3"/><path d="M880,26v243h243V26H880z" class="anim st5"/><path d="M1045,83.8l17,13.7l18-46.5l17,15.5V121h-17h-18h-17h-18v-9L1045,83.8z" class="st6"/><path d="M1045,83.8V121 M1062,97.5V121 M1080,51v70 M1045,121c-5.5,0-11.4,0-18,0v-9l18-28.2l17,13.7l18-46.5l17,15.5	V121c-6.2,0-11.8,0-17,0c-6.3,0-12.2,0-18,0C1056.5,121,1050.9,121,1045,121z" class="st3"/><circle cx="1088" cy="203" r="31" class="st1"/><path d="M1087.5,234c-33.4,0-60.5,26.4-60.5,59h121C1148,260.4,1120.9,234,1087.5,234z" class="st1"/><rect width="70" height="70" x="905" y="173" class="st1"/><line x1="938" x2="938" y1="173" y2="243" class="st7"/><line x1="920" x2="920" y1="173" y2="243" class="st7"/><line x1="911" x2="911" y1="173" y2="243" class="st7"/><circle cx="940" cy="87" r="35" class="st1"/><path d="M940,52v35l-15.5,31.5" class="st7"/><path d="M940,87l-30-18" class="st7"/><circle cx="269.5" cy="147.5" r="121.5" class="st1"/><ellipse cx="270" cy="147.5" class="st3" rx="86" ry="121.5"/><ellipse cx="270" cy="147.5" class="st3" rx="45" ry="121.5"/><line x1="270" x2="270" y1="26" y2="269" class="st3"/><line x1="390" x2="147" y1="148" y2="148" class="anim st5"/><path d="M376,207H163" class="anim st5"/><path d="M376,89H163" class="anim st5"/><path d="M879,148h-97v60h-24" class="anim st5"/><path d="M819,148V86h-61" class="anim st5"/><path d="M819,149v143H575v-22" class="anim st5"/><line x1="575" x2="575" y1="149" y2="122" class="anim st5"/><line x1="636" x2="610" y1="51" y2="51" class="anim st5"/><line x1="635.9" x2="609.7" y1="147.5" y2="121.3" class="anim st5"/><path d="M488,61h-37v87h-59" class="anim st5"/></svg>