<svg xmlns="http://www.w3.org/2000/svg" xmlns:xlink="http://www.w3.org/1999/xlink" id="Layer_1" x="0" y="0" version="1.1" viewBox="0 0 538 294" xml:space="preserve" style="enable-background:new 0 0 538 294"><style type="text/css">.st0,.st1{fill:none;stroke:#b0b1b5}.st1{stroke:#1a1b1f;stroke-width:2;stroke-dasharray:6,3}.st2{fill:#d6fff8}.st3{fill:none;stroke-width:2}.st3,.st4{stroke:#1a1b1f}.st4,.st5{stroke-width:2}.st4{fill:#d6fff8}.st5{fill:none;stroke:#000}.st6{fill:#fff}</style><line x1="25.5" x2="25.5" y1="0" y2="50" class="st0"/><line x1="50" x2="0" y1="25.5" y2="25.5" class="st0"/><line x1="25.5" x2="25.5" y1="122" y2="172" class="st0"/><line x1="50" x2="0" y1="147.5" y2="147.5" class="st0"/><line x1="25.5" x2="25.5" y1="244" y2="294" class="st0"/><line x1="50" x2="0" y1="269.5" y2="269.5" class="st0"/><line x1="513.5" x2="513.5" y1="0" y2="50" class="st0"/><line x1="538" x2="488" y1="25.5" y2="25.5" class="st0"/><line x1="513.5" x2="513.5" y1="122" y2="172" class="st0"/><line x1="538" x2="488" y1="147.5" y2="147.5" class="st0"/><line x1="513.5" x2="513.5" y1="244" y2="294" class="st0"/><line x1="538" x2="488" y1="269.5" y2="269.5" class="st0"/><line x1="391.5" x2="391.5" y1="0" y2="50" class="st0"/><line x1="416" x2="366" y1="25.5" y2="25.5" class="st0"/><line x1="269.5" x2="269.5" y1="0" y2="50" class="st0"/><line x1="294" x2="244" y1="25.5" y2="25.5" class="st0"/><line x1="147.5" x2="147.5" y1="0" y2="50" class="st0"/><line x1="172" x2="122" y1="25.5" y2="25.5" class="st0"/><line x1="391.5" x2="391.5" y1="122" y2="172" class="st0"/><line x1="416" x2="366" y1="147.5" y2="147.5" class="st0"/><line x1="269.5" x2="269.5" y1="122" y2="172" class="st0"/><line x1="294" x2="244" y1="147.5" y2="147.5" class="st0"/><line x1="147.5" x2="147.5" y1="122" y2="172" class="st0"/><line x1="172" x2="122" y1="147.5" y2="147.5" class="st0"/><line x1="391.5" x2="391.5" y1="244" y2="294" class="st0"/><line x1="416" x2="366" y1="269.5" y2="269.5" class="st0"/><line x1="269.5" x2="269.5" y1="244" y2="294" class="st0"/><line x1="294" x2="244" y1="269.5" y2="269.5" class="st0"/><line x1="147.5" x2="147.5" y1="244" y2="294" class="st0"/><line x1="172" x2="122" y1="269.5" y2="269.5" class="st0"/><path d="M270,26v243h243V26H270z" class="anim st1"/><path d="M435,83.8l17,13.7L470,51l17,15.5V121h-17h-18h-17h-18v-9L435,83.8z" class="st2"/><path d="M435,83.8V121 M435,121c-5.5,0-11.4,0-18,0v-9l18-28.2l17,13.7 M452,97.5V121 M452,97.5L470,51l17,15.5V121	c-6.2,0-11.8,0-17,0 M470,51v70 M470,121c-6.3,0-12.2,0-18,0 M452,121c-5.5,0-11.1,0-17,0" class="st3"/><circle cx="477" cy="203" r="31" class="st4"/><path d="M476.5,234c-33.4,0-60.5,26.4-60.5,59h121C537,260.4,509.9,234,476.5,234z" class="st4"/><rect width="70" height="70" x="295" y="173" class="st4"/><line x1="328" x2="328" y1="173" y2="243" class="st5"/><line x1="310" x2="310" y1="173" y2="243" class="st5"/><line x1="301" x2="301" y1="173" y2="243" class="st5"/><rect width="121" height="121" x="245" y="1" class="st6"/><rect width="72" height="23" x="281" y="50" class="st4"/><rect width="72" height="23" x="270" y="86" class="st4"/><rect width="72" height="23" x="258" y="14" class="st4"/><line x1="306" x2="306" y1="37" y2="50" class="st3"/><line x1="306" x2="306" y1="110" y2="121.5" class="st3"/><line x1="306" x2="306" y1="73" y2="86" class="st3"/><rect width="121" height="121" x="245" y="1" class="st3"/></svg>